<?xml version="1.0" encoding="UTF-8"?>
<svg version="1.1" xmlns="http://www.w3.org/2000/svg" width="1024" height="1024">
<path d="M0 0 C337.92 0 675.84 0 1024 0 C1024 337.92 1024 675.84 1024 1024 C686.08 1024 348.16 1024 0 1024 C0 686.08 0 348.16 0 0 Z " fill="#FAF9F8" transform="translate(0,0)"/>
<path d="M0 0 C0.99641504 -0.00384115 1.99283008 -0.00768229 3.01943952 -0.01163983 C4.65818061 -0.01034011 4.65818061 -0.01034011 6.33002758 -0.00901413 C7.49231874 -0.01198525 8.6546099 -0.01495637 9.85212201 -0.01801753 C13.07902738 -0.02519679 16.30590033 -0.02787677 19.53281248 -0.028615 C23.01280556 -0.03046657 26.49278713 -0.03801439 29.97277355 -0.04475021 C37.58226655 -0.05832943 45.19175427 -0.0643575 52.80125737 -0.06876087 C57.55258022 -0.07152377 62.30390104 -0.07576119 67.05522251 -0.08026505 C80.21028325 -0.09245675 93.36534236 -0.10275654 106.52040863 -0.10614014 C107.36227642 -0.1063597 108.20414421 -0.10657927 109.07152314 -0.10680549 C109.9154027 -0.10702377 110.75928226 -0.10724204 111.62873393 -0.10746694 C113.33875072 -0.1079104 115.04876751 -0.10835697 116.75878429 -0.10880661 C117.60701132 -0.10902804 118.45523836 -0.10924947 119.32916924 -0.10947761 C133.07527898 -0.11342613 146.82133572 -0.13088222 160.56742499 -0.15416613 C174.68031241 -0.17787843 188.79317324 -0.19034192 202.9060809 -0.19150805 C210.82999126 -0.19242484 218.75383255 -0.19817808 226.67772388 -0.21632767 C233.42462295 -0.23172695 240.1714316 -0.23685012 246.91834489 -0.22858956 C250.36023593 -0.22468254 253.80194488 -0.22561505 257.24381351 -0.23964691 C260.97664787 -0.25230761 264.70901322 -0.24652106 268.44184399 -0.23606491 C269.52764588 -0.24412132 270.61344778 -0.25217772 271.73215276 -0.26047826 C277.6280841 -0.22178897 281.89847179 0.22514762 287.07641125 3.13142776 C291.97675949 8.14314756 295.17606663 12.93006616 295.57641125 20.00642776 C295.37013118 26.24171154 292.82377086 30.3067767 288.5490675 34.70174026 C284.24109647 38.53835569 280.88508008 39.25479071 275.28499889 39.26171303 C273.83462703 39.26714955 273.83462703 39.26714955 272.35495472 39.2726959 C271.29543283 39.27162765 270.23591095 39.27055939 269.14428234 39.26945877 C268.01662645 39.27228005 266.88897057 39.27510133 265.72714329 39.2780081 C261.93470488 39.28636559 258.14229562 39.28769333 254.34984875 39.28914261 C251.63656934 39.29324345 248.92329377 39.29888661 246.2100172 39.30453873 C240.36057222 39.31606224 234.51113011 39.32430755 228.66167736 39.33065796 C219.41888051 39.34098265 210.17611962 39.36154496 200.93334484 39.38377762 C197.77163231 39.39125714 194.60991963 39.39867086 191.4482069 39.40606499 C190.65808606 39.40791555 189.86796521 39.40976612 189.05390131 39.41167276 C180.06075708 39.43259803 171.06760888 39.45142819 162.07445812 39.46931839 C161.25235969 39.47095657 160.43026126 39.47259475 159.58325076 39.47428258 C146.25223569 39.50058414 132.92121784 39.51921907 119.59018779 39.53591029 C105.90781902 39.55331839 92.22550475 39.58214817 78.54317951 39.62079966 C70.1008748 39.6442208 61.65865893 39.65819612 53.21632147 39.6601273 C47.43400545 39.66223337 41.65177791 39.67513474 35.86950159 39.69660662 C32.53124476 39.70865812 29.19331289 39.71414715 25.85501385 39.70989418 C22.23932827 39.70602247 18.62416676 39.72037988 15.00854015 39.73942947 C13.94901827 39.73389978 12.88949638 39.72837008 11.79786777 39.72267282 C10.34749591 39.73593258 10.34749591 39.73593258 8.8678236 39.74946022 C8.03308828 39.75081675 7.19835297 39.75217328 6.33832264 39.75357091 C3.51194307 40.22572331 2.14833265 41.17633267 0.07641125 43.13142776 C-1.06439263 46.5538394 -1.05512873 49.19268661 -1.06543446 52.80257034 C-1.0706461 53.81289574 -1.0706461 53.81289574 -1.07596302 54.84363174 C-1.08330996 56.30539311 -1.088661 57.76716555 -1.09225368 59.22894096 C-1.09943042 61.545461 -1.11510624 63.8617706 -1.13359547 66.17822647 C-1.18600571 72.7642413 -1.23402671 79.35014054 -1.24951649 85.93635941 C-1.25961588 89.96656615 -1.28898899 93.9962425 -1.3308363 98.0262394 C-1.34312324 99.55912827 -1.34827176 101.09209212 -1.34603786 102.62502861 C-1.34367631 104.7746256 -1.36591218 106.92270964 -1.39355946 109.07210159 C-1.40235882 110.90385689 -1.40235882 110.90385689 -1.41133595 112.77261734 C-2.02902785 116.8227855 -3.34442668 118.97722895 -5.92358875 122.13142776 C-12.3878923 125.52883073 -18.41956809 125.55833617 -25.614995 125.53767776 C-26.719072 125.54851395 -27.82314899 125.55935013 -28.96068287 125.57051468 C-33.65555227 125.61615535 -38.35036356 125.6278443 -43.04541492 125.64265823 C-46.48547276 125.65838476 -49.92507477 125.69138671 -53.364995 125.72517776 C-54.41933231 125.72215652 -55.47366962 125.71913528 -56.55995655 125.71602249 C-62.41339287 125.77552194 -66.83600946 126.10857806 -71.92358875 129.13142776 C-74.26439167 132.54134575 -74.17601101 135.63748868 -74.18085766 139.69484043 C-74.18436373 140.35582437 -74.18786981 141.01680831 -74.19148213 141.69782206 C-74.20081839 143.92238125 -74.19586717 146.14667992 -74.19101429 148.37125015 C-74.19474944 149.97838784 -74.19935041 151.58552372 -74.20474494 153.1926567 C-74.21700719 157.61673954 -74.21671068 162.04074695 -74.21435618 166.46484292 C-74.21394883 171.23319746 -74.22497939 176.00152755 -74.23447132 180.76987076 C-74.25110006 190.11498524 -74.25658172 199.46007449 -74.25769608 208.80520252 C-74.25864568 216.39992192 -74.26275159 223.99463298 -74.26909733 231.58934975 C-74.28671499 253.11189782 -74.2959354 274.63442593 -74.29443638 296.15698127 C-74.29431651 297.89822266 -74.29431651 297.89822266 -74.29419422 299.67464066 C-74.29411246 300.83688224 -74.2940307 301.99912382 -74.29394646 303.19658484 C-74.29313345 322.03509403 -74.31227354 340.87352328 -74.34047095 359.71200935 C-74.3691815 379.04555765 -74.38301225 398.37906695 -74.3812834 417.71263713 C-74.38061886 428.57084857 -74.38613925 439.42897623 -74.4076395 450.2871685 C-74.42582726 459.53187938 -74.43021846 468.77646849 -74.41662066 478.02118949 C-74.41007879 482.73901553 -74.41001765 487.4566078 -74.42732716 492.17441177 C-74.44300925 496.49303226 -74.44024426 500.81123267 -74.42275889 505.1298426 C-74.41967823 506.69242321 -74.4233614 508.25503479 -74.43447904 509.81757889 C-74.67319439 520.67957967 -74.67319439 520.67957967 -69.92358875 530.13142776 C-67.78912394 532.12858788 -67.78912394 532.12858788 -65.42358875 533.50642776 C-64.67077625 533.98853714 -63.91796375 534.47064651 -63.14233875 534.96736526 C-58.94827712 537.16777084 -55.21288413 537.25775905 -50.50911236 537.26285553 C-49.86422257 537.26490816 -49.21933279 537.2669608 -48.55490088 537.26907563 C-46.38512434 537.27474845 -44.21541121 537.27328803 -42.04562855 537.27186966 C-40.47775357 537.27445314 -38.90987925 537.27746625 -37.34200585 537.28087306 C-33.02634646 537.28894845 -28.7107037 537.29073293 -24.39503765 537.29147053 C-19.74319862 537.29332017 -15.09136823 537.30086711 -10.43953419 537.30760574 C-0.26380549 537.3211939 9.91191928 537.32721467 20.08765554 537.3316164 C26.44106441 537.33437827 32.79447176 537.33861555 39.1478796 537.34312057 C56.7370885 537.35531438 74.32629619 537.36561314 91.91550922 537.36899567 C93.04151301 537.36921523 94.16751679 537.3694348 95.3276419 537.36966102 C96.45635009 537.3698793 97.58505828 537.37009757 98.74796975 537.37032247 C101.03518462 537.37076593 103.3223995 537.3712125 105.60961437 537.37166214 C107.31142305 537.37199428 107.31142305 537.37199428 109.0476117 537.37233314 C127.42818805 537.37628052 145.80872474 537.39373223 164.18928577 537.41702166 C183.05840934 537.4407372 201.92751301 537.45319763 220.79665172 537.45436358 C231.39169815 537.45528028 241.98669292 537.46103126 252.58172512 537.4791832 C261.60454931 537.49458696 270.62730588 537.49970304 279.65014072 537.49144509 C284.25286397 537.48753945 288.85545106 537.48846402 293.45815754 537.50250244 C297.6750978 537.51524648 301.89179965 537.51403943 306.1087396 537.50191173 C307.63099743 537.49995559 309.15327218 537.50302932 310.67550625 537.51175609 C324.60707179 537.66918232 324.60707179 537.66918232 336.95141125 531.94392776 C341.42793092 526.01912231 344.19773981 520.08556551 344.20948982 512.60525036 C344.21373087 511.44895687 344.21797192 510.29266338 344.22234148 509.1013307 C344.22195535 507.82509558 344.22156921 506.54886047 344.22117138 505.23395157 C344.22430451 503.86905456 344.22787917 502.5041585 344.23185879 501.13926369 C344.24157052 497.3800239 344.24510952 493.6207993 344.24770176 489.86154878 C344.25159177 485.81024024 344.26122948 481.75894518 344.2702589 477.70764542 C344.28520872 470.683381 344.2967485 463.65911767 344.3062067 456.63484383 C344.3200744 446.4679643 344.34126214 436.30110968 344.36463524 426.13424803 C344.40257174 409.62574547 344.43753021 393.11723839 344.46923351 376.60872269 C344.47113401 375.62015819 344.4730345 374.6315937 344.47499258 373.6130727 C344.50180591 359.59403508 344.52568366 345.57499398 344.54837758 331.55594916 C344.55077353 330.07628592 344.55077353 330.07628592 344.55321789 328.5667305 C344.55481135 327.58149017 344.55640482 326.59624984 344.55804657 325.58115374 C344.58482942 309.14383181 344.61923679 292.7065363 344.65987164 276.26924282 C344.68462801 266.13110942 344.70296514 255.99300442 344.71302725 245.85484559 C344.72042793 238.90305302 344.73496889 231.95129856 344.75509148 224.99953126 C344.76646339 220.9902544 344.77461823 216.98103897 344.77408314 212.97174454 C344.77365368 209.29696004 344.78242869 205.62231354 344.79833294 201.94756449 C344.80441831 199.99762864 344.80078539 198.04766981 344.79673761 196.09772867 C344.90496436 177.53716403 344.90496436 177.53716403 351.07641125 170.13142776 C356.99202243 164.92005601 360.85298353 164.78642529 368.64672375 164.85017776 C372.88542463 165.19777055 375.02954891 166.16474602 378.07641125 169.13142776 C378.79828625 169.83267776 379.52016125 170.53392776 380.26391125 171.25642776 C385.49141238 179.54832612 385.50563816 188.55364519 385.45063305 198.08501053 C385.45337799 199.47927437 385.45743377 200.87353613 385.4626767 202.26779282 C385.47320923 206.07584622 385.46517005 209.88366302 385.45392621 213.69170594 C385.44505134 217.80769096 385.45353725 221.92364612 385.45978832 226.03963089 C385.46925976 234.09422296 385.46269068 242.14872521 385.45052538 250.20331059 C385.43687691 259.59114494 385.4385458 268.9789581 385.44065871 278.36679985 C385.44384628 295.12315905 385.43219495 311.87947571 385.41259289 328.6358223 C385.39359586 344.87932507 385.38650406 361.12277796 385.39208508 377.36629105 C385.39814967 395.06951205 385.39795287 412.77271114 385.38659924 430.47593033 C385.38539201 432.36554281 385.38418602 434.25515528 385.3829813 436.14476776 C385.38207599 437.53921403 385.38207599 437.53921403 385.3811524 438.96183094 C385.37728063 445.49858908 385.37766402 452.03533904 385.37956715 458.57209778 C385.38169436 466.54472801 385.37642539 474.51731466 385.36195359 482.48993264 C385.3547343 486.55419287 385.35061139 490.6183898 385.35519695 494.68265533 C385.35929957 498.40968597 385.35403415 502.13658643 385.34157088 505.86359741 C385.33729677 507.83658176 385.34270439 509.80957994 385.34856015 511.78256023 C385.29697523 522.3531681 384.61214598 532.63616655 379.63891125 542.13142776 C379.29400646 542.80294876 378.94910168 543.47446976 378.59374523 544.16633987 C370.03402097 559.99740977 355.49441879 570.91582549 338.47395658 576.26322889 C328.81582736 578.82995625 319.70888226 579.70403979 309.71984386 579.63936234 C308.13763372 579.64398447 306.55542789 579.6503461 304.97323084 579.65827131 C300.67334775 579.67480782 296.37382454 579.66679065 292.07394099 579.65432644 C287.4180891 579.64521328 282.76229576 579.6592765 278.1064558 579.67024612 C269.00457272 579.68796953 259.90282208 579.68421902 250.80093396 579.67259556 C243.39917268 579.66353709 235.99744834 579.66234765 228.5956831 579.66669083 C227.53950715 579.66730376 226.4833312 579.66791669 225.39514992 579.6685482 C223.24909515 579.66982719 221.1030404 579.67112404 218.95698565 579.67243856 C198.86537639 579.68382626 178.77384031 579.67075911 158.68224305 579.6492371 C141.46805546 579.63136778 124.2539758 579.63447239 107.03979015 579.65291214 C87.01674993 579.67435088 66.99377373 579.68272779 46.97072363 579.67046309 C44.83286223 579.66918898 42.69500082 579.66793149 40.5571394 579.66669083 C39.50545636 579.66607372 38.45377333 579.66545662 37.37022111 579.66482082 C29.98316049 579.66137693 22.59614071 579.66717549 15.20908642 579.67660904 C6.19840328 579.68786383 -2.81214059 579.68471609 -11.82280791 579.66348606 C-16.4142333 579.65302233 -21.00542707 579.64877336 -25.5968504 579.66208267 C-29.81000648 579.67411017 -34.02271895 579.66727592 -38.23583549 579.64617246 C-39.74975939 579.64174982 -41.26372175 579.64387336 -42.77762038 579.65367562 C-62.69713026 579.77263202 -81.03988749 574.4854638 -95.77246571 560.61922073 C-106.94480597 549.38004884 -115.03909952 534.04426375 -115.05501652 518.07853031 C-115.05706915 517.37677035 -115.05912179 516.67501039 -115.06123662 515.95198497 C-115.06690198 513.59477415 -115.06544994 511.23762185 -115.06403065 508.88040543 C-115.06661455 507.17554904 -115.06962778 505.47069326 -115.07303405 503.76583833 C-115.08110435 499.07618662 -115.08289364 494.38655021 -115.08363152 489.69689238 C-115.08548201 484.6408412 -115.09302933 479.58479796 -115.09976673 474.52875137 C-115.11335073 463.47087852 -115.11937486 452.41300929 -115.12377739 441.35512948 C-115.12653966 434.45111085 -115.13077698 427.54709362 -115.13528156 420.64307594 C-115.14747424 401.52945195 -115.15777361 382.41582907 -115.16115665 363.30220127 C-115.16137622 362.07880144 -115.16159579 360.85540161 -115.16182201 359.59492905 C-115.16204028 358.36859568 -115.16225856 357.1422623 -115.16248345 355.87876731 C-115.16292692 353.3937329 -115.16337348 350.9086985 -115.16382313 348.42366409 C-115.16404456 347.19100019 -115.16426599 345.95833629 -115.16449413 344.68831893 C-115.16844232 324.71380885 -115.185897 304.73933525 -115.20918265 284.76483927 C-115.23289436 264.25942621 -115.24535842 243.75403146 -115.24652457 223.24860448 C-115.24744143 211.73472081 -115.25319637 200.22088467 -115.27134418 188.70701408 C-115.2867427 178.90285258 -115.29186708 169.09875329 -115.28360608 159.29458199 C-115.27969874 154.29287836 -115.28063338 149.29130004 -115.29466343 144.28961182 C-115.30739704 139.70818443 -115.30620951 135.12697659 -115.29407272 130.54554953 C-115.2921148 128.890752 -115.29519855 127.23593893 -115.30391708 125.58116321 C-115.3868466 108.77303727 -111.90526566 97.07459376 -99.89233875 84.74470901 C-98.07962915 82.96731193 -96.25656253 81.20041961 -94.42358875 79.44392776 C-86.14939238 71.41392041 -86.14939238 71.41392041 -78.427495 62.86067581 C-76.83439508 61.02886952 -75.15548201 59.33215645 -73.42358875 57.63142776 C-71.09235843 55.34127639 -68.91390311 52.99687176 -66.79858875 50.50642776 C-61.81506228 44.77405393 -56.36123836 39.522669 -50.9509325 34.19783401 C-46.57451432 29.86356432 -42.35187692 25.47261891 -38.34668446 20.79158401 C-28.60663549 9.42902904 -15.50549046 0.02246218 0 0 Z " fill="#12273D" transform="translate(348.9235887527466,210.86857223510742)"/>
<path d="M0 0 C0.74197128 -0.00832352 1.48394257 -0.01664703 2.24839783 -0.02522278 C4.69771596 -0.04928981 7.14676763 -0.05809061 9.59619141 -0.06469727 C11.30246052 -0.0736659 13.00872883 -0.08278779 14.71499634 -0.09205627 C18.29097402 -0.10853969 21.86685814 -0.11624524 25.44287109 -0.11914062 C30.01847614 -0.12452477 34.5931985 -0.1622082 39.16855431 -0.20788479 C42.69281198 -0.23767001 46.21685742 -0.24486449 49.74123001 -0.24586678 C51.42771067 -0.25006595 53.11419213 -0.26248822 54.80054855 -0.28338432 C57.16326029 -0.31033173 59.5239303 -0.30546521 61.88671875 -0.29296875 C62.9249453 -0.31522018 62.9249453 -0.31522018 63.98414612 -0.33792114 C67.79784538 -0.28066708 69.69378009 0.38439496 72.9281311 2.46885681 C77.55766168 7.43609701 77.82336795 11.98979688 77.84741211 18.59350586 C77.85507851 19.64837944 77.85507851 19.64837944 77.86289978 20.7245636 C77.87672147 23.03317945 77.87584497 25.34149435 77.87353516 27.65014648 C77.87742558 29.26387644 77.88176096 30.87760538 77.88652039 32.49133301 C77.89396618 35.86705858 77.89370283 39.24267952 77.88842773 42.6184082 C77.88262887 46.93591419 77.89958189 51.25299177 77.92277241 55.57042694 C77.93752936 58.90080248 77.9383789 62.23107522 77.93526268 65.56147766 C77.9357747 67.15302887 77.94098992 68.74458601 77.9510746 70.33610535 C77.96346307 72.56411336 77.9566342 74.79129158 77.94506836 77.01928711 C77.94569778 78.28470337 77.94632721 79.55011963 77.94697571 80.85388184 C77.41801835 85.73396366 75.70398419 89.00376767 72.51025391 92.68139648 C68.30241202 95.0091388 64.28490152 95.12365959 59.57275391 94.30639648 C55.3668179 92.24374096 52.0869115 89.23740024 48.69775391 86.05639648 C48.1747168 85.57130615 47.65167969 85.08621582 47.11279297 84.58642578 C43.17365385 80.91586433 39.33719104 77.15638901 35.57275391 73.30639648 C34.95400391 73.80139648 34.33525391 74.29639648 33.69775391 74.80639648 C31.57275391 76.30639648 31.57275391 76.30639648 29.57275391 76.30639648 C29.33121582 76.87318115 29.08967773 77.43996582 28.84082031 78.02392578 C27.32092287 80.75968265 25.5028018 82.61855988 23.28369141 84.82592773 C22.42388672 85.68379883 21.56408203 86.54166992 20.67822266 87.42553711 C19.77716797 88.3143457 18.87611328 89.2031543 17.94775391 90.11889648 C17.06990234 90.99610352 16.19205078 91.87331055 15.28759766 92.77709961 C10.74329477 97.29101711 6.13415885 101.66844533 1.27539062 105.84228516 C-0.88106116 107.69663579 -2.9631213 109.62680486 -5.05224609 111.55639648 C-9.57822978 115.64505353 -14.29512497 119.41699126 -19.11547852 123.14697266 C-22.95558468 126.12415692 -26.67713882 129.2024181 -30.36474609 132.36889648 C-37.01801572 137.94706824 -44.12637292 142.63516074 -51.42724609 147.30639648 C-52.0455127 147.70826172 -52.6637793 148.11012695 -53.30078125 148.52416992 C-77.86525185 164.48882455 -103.98210557 177.15319423 -131.42724609 187.30639648 C-132.57628418 187.733479 -132.57628418 187.733479 -133.74853516 188.16918945 C-152.27134886 194.95473312 -171.69029279 199.25729592 -190.98974609 203.18139648 C-191.98111572 203.38450439 -192.97248535 203.5876123 -193.99389648 203.796875 C-204.5017017 205.85917121 -214.91970013 206.51716808 -225.61474609 206.61889648 C-226.64277344 206.64790039 -227.67080078 206.6769043 -228.72998047 206.70678711 C-235.09849698 206.75975622 -240.19562873 206.17529203 -245.42724609 202.30639648 C-250.06546278 196.47889347 -250.90898737 191.6167623 -250.82958984 184.32983398 C-250.31273352 180.44588452 -249.0904487 178.48030606 -246.52099609 175.61108398 C-240.5454799 171.88753472 -232.58028605 171.73295419 -225.73974609 170.93139648 C-206.03710546 168.45458312 -187.37903766 164.24156777 -168.42724609 158.30639648 C-167.53005859 158.02924805 -166.63287109 157.75209961 -165.70849609 157.46655273 C-99.97143357 137.02154371 -40.24782597 96.42225089 3.57275391 43.30639648 C2.20363564 40.20862348 0.66294511 38.19421647 -1.79833984 35.88061523 C-2.45511719 35.24833008 -3.11189453 34.61604492 -3.78857422 33.96459961 C-5.16478897 32.65829605 -6.5449644 31.3561516 -7.92919922 30.05834961 C-12.61448061 25.5290913 -16.04746628 21.62207621 -16.64208984 14.86499023 C-15.97630934 9.77317596 -14.85738848 6.32456329 -11.42724609 2.30639648 C-7.85085818 -0.13344987 -4.17987266 0.00399059 0 0 Z " fill="#12273E" transform="translate(570.42724609375,464.693603515625)"/>
<path d="M0 0 C3.91155623 2.31246225 6.79041682 5.08268365 9.94140625 8.32421875 C10.51761719 8.89720703 11.09382812 9.47019531 11.6875 10.06054688 C15.90300956 14.33010143 18.46961534 17.54774247 18.56640625 23.76171875 C18.59476563 24.58414062 18.623125 25.4065625 18.65234375 26.25390625 C17.53750198 32.62173126 12.34521401 36.95944794 7.87890625 41.26171875 C3.76501181 45.29889324 -0.21574656 49.35352057 -3.953125 53.74609375 C-6.42717222 56.60036296 -8.9913325 59.36635395 -11.55859375 62.13671875 C-12.07341309 62.69270752 -12.58823242 63.24869629 -13.11865234 63.8215332 C-14.16638561 64.95290904 -15.2142376 66.08417495 -16.26220703 67.21533203 C-21.96567553 73.3798324 -27.63908372 79.5717975 -33.24609375 85.82421875 C-37.28341539 90.32543372 -41.38571686 94.76365722 -45.49658203 99.19750977 C-48.25404621 102.1787797 -50.96855921 105.18597084 -53.62109375 108.26171875 C-55.71644945 110.69031174 -57.87930081 112.96841124 -60.18359375 115.19921875 C-62.92355621 117.88262144 -65.28866483 120.7123734 -67.65234375 123.73046875 C-73.57353542 131.01702182 -80.24187514 137.50233876 -86.93359375 144.07421875 C-97.72184 154.65002491 -97.72184 154.65002491 -107.80859375 165.88671875 C-109.50294121 167.83728606 -111.2159429 169.76893267 -112.93359375 171.69921875 C-113.74054688 172.61316406 -114.5475 173.52710938 -115.37890625 174.46875 C-118.91770054 177.99047615 -122.02123555 180.31489543 -127.12109375 180.32421875 C-134.69708808 180.03525048 -139.98437387 176.05669392 -145.55859375 171.25390625 C-146.80859375 169.88671875 -146.80859375 169.88671875 -146.80859375 167.88671875 C-147.3490332 167.67297607 -147.88947266 167.4592334 -148.44628906 167.23901367 C-151.66016396 165.39923969 -154.04212012 162.87932043 -156.60546875 160.25 C-157.15793274 159.69233444 -157.71039673 159.13466888 -158.27960205 158.56010437 C-160.04409889 156.7778407 -161.8017817 154.9890554 -163.55859375 153.19921875 C-172.9461642 143.5957799 -172.9461642 143.5957799 -182.87744141 134.56665039 C-186.9477649 131.02582916 -190.77475231 127.22950281 -194.62109375 123.44921875 C-195.46607422 122.64162109 -196.31105469 121.83402344 -197.18164062 121.00195312 C-202.6394847 115.62214018 -206.60812087 111.1915395 -206.91015625 103.19921875 C-205.52232148 96.46480739 -202.80769718 92.53797204 -197.80859375 87.88671875 C-197.23238281 87.2834375 -196.65617188 86.68015625 -196.0625 86.05859375 C-190.90998338 81.31606232 -185.98977617 81.23962844 -179.17578125 81.28515625 C-172.9977452 82.38888891 -168.96995145 86.46716107 -164.49609375 90.63671875 C-163.99537354 91.10134521 -163.49465332 91.56597168 -162.97875977 92.04467773 C-161.24987176 93.65291542 -159.5284149 95.26878923 -157.80859375 96.88671875 C-157.13763672 97.51787598 -156.46667969 98.1490332 -155.77539062 98.79931641 C-152.86728236 101.5367891 -149.96014449 104.27527964 -147.05566406 107.01660156 C-141.36952609 112.37781737 -135.62182293 117.66360139 -129.80859375 122.88671875 C-123.09920387 119.87553288 -118.59812927 113.71374196 -113.8828125 108.24609375 C-111.28230178 105.28807402 -108.61125149 102.39982365 -105.93359375 99.51171875 C-100.84066797 94.01518176 -95.80730641 88.46922267 -90.80859375 82.88671875 C-85.35094674 76.80976427 -79.87333241 70.75217351 -74.36328125 64.72265625 C-72.37354015 62.51386109 -70.41389878 60.28725231 -68.46484375 58.04296875 C-64.88347128 53.93961486 -61.17648283 49.96747586 -57.43359375 46.01171875 C-53.31374383 41.64289731 -49.21980956 37.26476631 -45.24609375 32.76171875 C-40.96810754 27.95608719 -36.40937585 23.45581408 -31.83544922 18.93505859 C-28.72192574 15.84533492 -25.71171811 12.73391044 -22.87109375 9.38671875 C-16.68172733 2.10050258 -10.14284851 -4.02046151 0 0 Z " fill="#12273E" transform="translate(736.80859375,240.11328125)"/>
<path d="M0 0 C0.82310165 -0.00570007 1.64620331 -0.01140015 2.49424744 -0.01727295 C4.22637665 -0.02667816 5.9585234 -0.03323901 7.69067383 -0.03710938 C10.33511309 -0.04685756 12.97878819 -0.07793959 15.62304688 -0.109375 C17.31119333 -0.1159021 18.99934531 -0.12115372 20.6875 -0.125 C21.86736229 -0.1435202 21.86736229 -0.1435202 23.07106018 -0.16241455 C27.6610615 -0.14382587 30.65530065 0.31158866 34.27734375 3.203125 C38.30206368 9.2402049 37.43110849 16.52807616 37.43847656 23.54516602 C37.44592392 25.24618469 37.44592392 25.24618469 37.45352173 26.98156738 C37.46809767 30.72339488 37.47493605 34.46518006 37.48046875 38.20703125 C37.48622183 40.80964662 37.49197955 43.41226197 37.4977417 46.01487732 C37.50729692 50.77028506 37.51320436 55.5256837 37.51623845 60.28109986 C37.52072511 67.27326717 37.53831094 74.26523959 37.56723905 81.25734764 C37.59146438 87.32393653 37.59918273 93.39043315 37.600914 99.45707512 C37.60394384 102.03470868 37.61198342 104.61234134 37.62509918 107.18994331 C37.64211859 110.7902732 37.64028975 114.39012493 37.63378906 117.99047852 C37.64761124 119.59042915 37.64761124 119.59042915 37.66171265 121.22270203 C37.60917738 130.4923743 37.60917738 130.4923743 34.27734375 134.203125 C31.50348563 136.07467723 29.28008963 136.45942065 25.97119141 136.49365234 C25.12996735 136.50641205 24.28874329 136.51917175 23.42202759 136.53231812 C22.52092255 136.53454376 21.6198175 136.53676941 20.69140625 136.5390625 C19.75686615 136.5457193 18.82232605 136.5523761 17.85946655 136.55923462 C15.88419561 136.56935048 13.90889057 136.57405197 11.93359375 136.57373047 C8.91999646 136.57809941 5.90786911 136.61441845 2.89453125 136.65234375 C0.97266124 136.65821306 -0.9492157 136.66218169 -2.87109375 136.6640625 C-3.76815033 136.67843353 -4.66520691 136.69280457 -5.58944702 136.70761108 C-11.06633719 136.66784755 -14.54545801 136.10883381 -18.72265625 132.203125 C-21.32558399 126.62716867 -21.00454958 120.97516369 -20.98144531 114.95288086 C-20.98494995 113.82862198 -20.98845459 112.7043631 -20.99206543 111.54603577 C-21.00085485 107.83661695 -20.9950437 104.12738944 -20.98828125 100.41796875 C-20.9896286 97.83777327 -20.99156972 95.25757804 -20.99407959 92.67738342 C-20.997027 87.27309515 -20.9929364 81.86887858 -20.98339844 76.46459961 C-20.97250957 70.2229362 -20.97604511 63.98140343 -20.98705125 57.73974317 C-20.9972305 51.72547476 -20.99614097 45.7112701 -20.99028778 39.69699287 C-20.98895308 37.14169865 -20.99059271 34.5864011 -20.99524689 32.03111076 C-21.0003215 28.46197528 -20.99258865 24.89309134 -20.98144531 21.32397461 C-20.98549377 20.26669159 -20.98954224 19.20940857 -20.99371338 18.12008667 C-20.98807373 17.14584244 -20.98243408 16.17159821 -20.97662354 15.16783142 C-20.97586948 14.32480941 -20.97511543 13.4817874 -20.97433853 12.61321926 C-20.57427197 8.78220615 -19.32541251 5.97809734 -16.97265625 2.953125 C-12.28275443 -0.69457642 -5.71728463 0.03097029 0 0 Z " fill="#11273D" transform="translate(609.72265625,582.796875)"/>
<path d="M0 0 C1.10323105 -0.0071553 2.2064621 -0.01431061 3.34312439 -0.02168274 C4.55406769 -0.02437164 5.76501099 -0.02706055 7.01264954 -0.02983093 C8.28770859 -0.03640213 9.56276764 -0.04297333 10.87646484 -0.04974365 C15.10714971 -0.0707686 19.33783486 -0.08114607 23.56855774 -0.09111023 C25.02670116 -0.09515868 26.4848444 -0.09927563 27.94298744 -0.10346031 C34.79552445 -0.12251028 41.64805071 -0.13674048 48.5006091 -0.14507228 C56.40122638 -0.15483776 64.30156297 -0.18113979 72.20208138 -0.22157317 C78.31432061 -0.2517768 84.42647958 -0.26654525 90.53879195 -0.26985329 C94.18659888 -0.27219939 97.83410588 -0.2811015 101.4818325 -0.30631447 C105.55608523 -0.33402035 109.62971472 -0.32975115 113.70405579 -0.32279968 C114.90487793 -0.33560974 116.10570007 -0.3484198 117.34291077 -0.36161804 C124.9434982 -0.31438304 130.91308317 0.4098215 136.55683899 6.00654602 C139.39147055 10.77030185 140.83067543 14.60698782 139.68183899 20.14717102 C137.77534172 25.98382187 135.20388435 29.20991285 129.68183899 32.14717102 C126.63464975 33.16290077 124.55384034 33.2825589 121.36367798 33.30107117 C119.70883141 33.31397186 119.70883141 33.31397186 118.02055359 33.32713318 C116.80961029 33.33139313 115.59866699 33.33565308 114.35102844 33.34004211 C113.07596939 33.3482196 111.80091034 33.35639709 110.48721313 33.36482239 C106.25653694 33.39101669 102.02585098 33.40634925 97.79512024 33.42060852 C96.33697694 33.42596961 94.87883371 33.43134713 93.42069054 33.43674088 C87.3531203 33.45836743 81.2855527 33.47710232 75.21795368 33.48836327 C66.53229563 33.50459078 57.84708573 33.53774139 49.1615966 33.59476411 C43.04935975 33.63351931 36.93724248 33.65300262 30.82488602 33.65828383 C27.17700194 33.66193024 23.52959613 33.67387433 19.88184547 33.70638657 C15.80750202 33.74218038 11.73411624 33.73808229 7.65962219 33.73066711 C5.85838898 33.75527512 5.85838898 33.75527512 4.02076721 33.78038025 C-3.0265537 33.72791321 -7.92878195 32.88955079 -13.31816101 28.14717102 C-16.52930394 24.4420061 -18.098712 21.07148402 -18.47831726 16.22920227 C-18.06623452 10.8721266 -15.23062847 6.66789271 -11.25566101 3.20967102 C-7.32283379 0.44832425 -4.68567471 0.02085289 0 0 Z " fill="#10253C" transform="translate(342.3181610107422,460.8528289794922)"/>
<path d="M0 0 C0.90458954 -0.01283524 1.80917908 -0.02567047 2.74118042 -0.03889465 C3.71620514 -0.04628159 4.69122986 -0.05366852 5.69580078 -0.0612793 C6.70071564 -0.06935104 7.70563049 -0.07742279 8.74099731 -0.08573914 C10.86767861 -0.09957045 12.99438202 -0.11029687 15.12109375 -0.11816406 C18.37168361 -0.13539505 21.62126112 -0.17929231 24.87158203 -0.22338867 C26.93798081 -0.23351425 29.00438822 -0.24203077 31.07080078 -0.2487793 C32.52726517 -0.27504143 32.52726517 -0.27504143 34.01315308 -0.30183411 C38.3314175 -0.2879649 40.83355713 -0.2291993 44.60644531 2.01611328 C47.95407237 5.80412748 47.80659462 9.89942573 48.05517578 14.7199707 C48.11700546 15.89295967 48.11700546 15.89295967 48.18008423 17.08964539 C48.67731152 27.40416154 48.81144348 37.72465902 48.86621094 48.04980469 C48.88298173 50.36631161 48.91053749 52.68276267 48.94824219 54.99902344 C49.00279283 58.38804125 49.02482148 61.77588691 49.03955078 65.1652832 C49.06222015 66.19857254 49.08488953 67.23186188 49.10824585 68.29646301 C49.08716646 75.41589495 49.08716646 75.41589495 46.17089844 79.30273438 C42.73888531 81.72572175 40.23714722 82.30193698 36.13989258 82.35400391 C34.81788094 82.37325676 34.81788094 82.37325676 33.46916199 82.39289856 C32.5191481 82.40028549 31.56913422 82.40767242 30.59033203 82.4152832 C29.60998489 82.42335495 28.62963776 82.4314267 27.61958313 82.43974304 C25.54417688 82.45357475 23.46874797 82.46430099 21.39331055 82.47216797 C18.2261222 82.48937963 15.05997813 82.53327419 11.89306641 82.57739258 C9.87549595 82.58751995 7.85791663 82.59603591 5.84033203 82.6027832 C4.89639084 82.62029129 3.95244965 82.63779938 2.97990417 82.65583801 C-3.3126165 82.63517204 -6.92978502 81.73110365 -11.48388672 77.17700195 C-11.63422263 75.03213866 -11.71473986 72.88236204 -11.76855469 70.73291016 C-11.79545128 69.72302284 -11.79545128 69.72302284 -11.82289124 68.69273376 C-11.88021658 66.45451694 -11.92920328 64.21624241 -11.97607422 61.9777832 C-11.99243046 61.21390982 -12.0087867 60.45003643 -12.02563858 59.66301537 C-12.11074027 55.61675721 -12.18842886 51.57042274 -12.26123047 47.52392578 C-12.32289165 44.17610526 -12.39922003 40.82912236 -12.48876953 37.48193359 C-12.59685822 33.44154513 -12.67989028 29.40136958 -12.74502945 25.36006737 C-12.77391247 23.8213665 -12.81145028 22.28280223 -12.85790634 20.74453163 C-12.92116157 18.58538312 -12.95209648 16.42796469 -12.97558594 14.26806641 C-13.00143768 13.0408638 -13.02728943 11.81366119 -13.05392456 10.54927063 C-12.28440645 5.996903 -10.75279062 4.39981444 -7.48388672 1.17700195 C-4.67934547 0.24215487 -2.90591439 0.03596292 0 0 Z " fill="#11263D" transform="translate(514.48388671875,636.822998046875)"/>
<path d="M0 0 C1.57278969 -0.01062721 1.57278969 -0.01062721 3.17735291 -0.02146912 C4.31722153 -0.0189917 5.45709015 -0.01651428 6.63150024 -0.01396179 C7.84018265 -0.01907272 9.04886505 -0.02418365 10.29417419 -0.02944946 C13.60217664 -0.04095665 16.90992826 -0.04342077 20.21793318 -0.04088616 C22.9837039 -0.03981464 25.74945164 -0.04470453 28.51521742 -0.04949158 C35.04309098 -0.06057884 41.57090699 -0.06102884 48.0987854 -0.05497742 C54.82268886 -0.04893988 61.54638294 -0.06124469 68.27025068 -0.08254749 C74.05216755 -0.10018926 79.83401794 -0.10616073 85.61596072 -0.10290974 C89.06522289 -0.10110056 92.51433576 -0.10369623 95.96357346 -0.11762428 C99.81260068 -0.1325856 103.66136334 -0.12320996 107.51040649 -0.11161804 C108.64622665 -0.11926178 109.78204681 -0.12690552 110.95228577 -0.13478088 C116.98709269 -0.0946259 121.35954832 0.38029093 126.7003479 3.26069641 C126.7003479 3.92069641 126.7003479 4.58069641 126.7003479 5.26069641 C127.3603479 5.26069641 128.0203479 5.26069641 128.7003479 5.26069641 C132.88949151 10.76086784 132.45779243 16.64346127 131.7003479 23.26069641 C130.21489684 27.3056939 127.34574442 30.02642112 123.7003479 32.26069641 C120.69667841 33.26191957 118.6972421 33.39105545 115.55854797 33.40113831 C113.96247208 33.40970352 113.96247208 33.40970352 112.33415222 33.41844177 C111.16682053 33.41955963 109.99948883 33.42067749 108.79678345 33.42182922 C107.56727966 33.42679413 106.33777588 33.43175903 105.0710144 33.43687439 C101.69691398 33.44898437 98.32287554 33.45644158 94.94876075 33.46088505 C92.83991526 33.46381745 90.73107519 33.46792259 88.62223244 33.47238922 C82.02171405 33.48606207 75.42120807 33.49572961 68.82067651 33.49959111 C61.2059102 33.50407065 53.59132349 33.52161446 45.97661179 33.55059171 C40.08775519 33.57222202 34.19894907 33.58229612 28.31005317 33.58363223 C24.79427007 33.58467936 21.27865587 33.59056716 17.76291466 33.60845184 C13.83924973 33.62802342 9.9158085 33.62363815 5.99209595 33.61714172 C4.83083694 33.62635651 3.66957794 33.63557129 2.47312927 33.64506531 C-4.47966041 33.60896201 -9.05847461 32.96167766 -14.5496521 28.38569641 C-18.21542948 23.9343953 -18.79062213 19.95594874 -18.2996521 14.26069641 C-16.59926336 9.07003604 -14.49968255 5.76072179 -10.2996521 2.26069641 C-6.74706998 0.55444461 -3.92482069 0.00887261 0 0 Z " fill="#14293F" transform="translate(342.2996520996094,385.7393035888672)"/>
<path d="M0 0 C0.78775818 -0.0071553 1.57551636 -0.01431061 2.387146 -0.02168274 C3.24230804 -0.02437164 4.09747009 -0.02706055 4.97854614 -0.02983093 C6.34021912 -0.03968773 6.34021912 -0.03968773 7.72940063 -0.04974365 C10.73058152 -0.06943931 13.73171251 -0.08112941 16.73294067 -0.09111023 C17.75884434 -0.09518576 18.784748 -0.09926128 19.84173965 -0.10346031 C25.2691757 -0.12430262 30.69658657 -0.13861372 36.12405396 -0.147995 C41.72854103 -0.15907065 47.33263231 -0.19348933 52.93697929 -0.23316669 C57.24870544 -0.25930666 61.56033674 -0.26768439 65.87213516 -0.27127647 C67.93818976 -0.27614722 70.00423998 -0.28777505 72.07021713 -0.30631447 C74.96185535 -0.33065549 77.8524619 -0.32975029 80.74417114 -0.32279968 C81.59528473 -0.33560974 82.44639832 -0.3484198 83.32330322 -0.36161804 C88.69863752 -0.31457312 91.71171162 0.60238191 95.99075317 4.14717102 C98.84530091 7.23959773 100.94216276 10.04813576 101.99075317 14.14717102 C101.71072121 20.02784231 100.98580286 25.40417997 96.41262817 29.59248352 C90.3290921 34.22126097 84.61314112 34.30153005 77.19656372 34.34004211 C75.88338165 34.35230835 75.88338165 34.35230835 74.54367065 34.36482239 C71.65494456 34.38957572 68.7662672 34.40616502 65.87747192 34.42060852 C64.39338302 34.42859404 64.39338302 34.42859404 62.87931252 34.43674088 C57.64408774 34.46342648 52.40888645 34.48281754 47.1736145 34.49726868 C42.84852989 34.51061419 38.52391635 34.53848502 34.19900513 34.57929993 C28.96714892 34.62866595 23.73572029 34.65339408 18.50364113 34.66049576 C16.51457866 34.66719812 14.52552535 34.68239365 12.5365963 34.70638657 C9.74826991 34.73810896 6.96158668 34.73806458 4.17312622 34.73066711 C3.35882645 34.74707245 2.54452667 34.76347778 1.70555115 34.78038025 C-4.30757457 34.71537348 -8.34405674 32.94046052 -13.00924683 29.14717102 C-16.55007606 24.97080834 -17.81731401 21.61725639 -18.00924683 16.14717102 C-16.86245609 10.10045624 -14.60856438 6.42157388 -10.00924683 2.39717102 C-6.79895664 0.39073965 -3.73637478 0.02342252 0 0 Z " fill="#14283E" transform="translate(342.0092468261719,535.8528289794922)"/>
<path d="M0 0 C1.85044922 -0.032146 1.85044922 -0.032146 3.73828125 -0.06494141 C5.49591797 -0.07146729 5.49591797 -0.07146729 7.2890625 -0.078125 C8.3404541 -0.0874707 9.3918457 -0.09681641 10.47509766 -0.10644531 C13.82590088 0.30542308 15.66837498 1.2637582 18.375 3.25 C22.03378438 8.47683482 22.11658366 14.07150012 22.375 20.25 C22.42785156 21.38050781 22.48070312 22.51101563 22.53515625 23.67578125 C22.79946342 33.82287837 22.79946342 33.82287837 19.375 38.25 C16.38245232 40.10481502 14.07150734 40.51170985 10.578125 40.55639648 C9.6303418 40.57238388 8.68255859 40.58837128 7.70605469 40.60484314 C6.68930664 40.61020584 5.67255859 40.61556854 4.625 40.62109375 C3.57473633 40.63012222 2.52447266 40.6391507 1.44238281 40.64845276 C-0.77666372 40.66295034 -2.99575294 40.67184077 -5.21484375 40.67553711 C-8.61270723 40.68745688 -12.00876845 40.73666878 -15.40625 40.78710938 C-17.56249113 40.79657096 -19.71874342 40.80380726 -21.875 40.80859375 C-22.89174805 40.82812607 -23.90849609 40.84765839 -24.95605469 40.86778259 C-32.00502828 40.82258054 -32.00502828 40.82258054 -35.234375 37.84008789 C-38.18638748 32.34186099 -37.8830312 27.70218027 -37.9375 21.5 C-37.96650391 20.41460938 -37.99550781 19.32921875 -38.02539062 18.2109375 C-38.07518771 11.94416625 -38.02534271 7.90465323 -33.625 3.25 C-25.69091229 -2.40303749 -9.3372777 0.09217569 0 0 Z " fill="#12263C" transform="translate(455.625,678.75)"/>
<path d="M0 0 C0.33 0.66 0.66 1.32 1 2 C-0.75 4.0625 -0.75 4.0625 -3 6 C-4.32 5.67 -5.64 5.34 -7 5 C-4.69 3.35 -2.38 1.7 0 0 Z " fill="#0E1B2D" transform="translate(501,575)"/>
<path d="M0 0 C-3.20336822 2.83374881 -5.78087253 3.5205537 -10 4 C-6.87839899 0.56623888 -4.64008112 -1.54669371 0 0 Z " fill="#081325" transform="translate(470,597)"/>
</svg>
