<?xml version="1.0" encoding="UTF-8"?>
<svg version="1.1" xmlns="http://www.w3.org/2000/svg" width="500" height="500">
<path d="M0 0 C1.18886307 -0.00563965 2.37772614 -0.0112793 3.60261536 -0.01708984 C5.5385128 -0.01101715 5.5385128 -0.01101715 7.51351929 -0.00482178 C8.89706099 -0.0075341 10.28060125 -0.01109639 11.66413879 -0.01544189 C15.40983659 -0.02453777 19.15542387 -0.02103369 22.90112352 -0.01468372 C26.82436446 -0.00961124 30.74759609 -0.01431846 34.6708374 -0.01745605 C41.25627335 -0.0210912 47.84166438 -0.01630756 54.42709351 -0.0067749 C62.04001064 0.00411783 69.65282071 0.00057634 77.26573527 -0.01042771 C83.80600133 -0.01950268 90.34623516 -0.02078511 96.88650548 -0.01555037 C100.79113163 -0.01243299 104.69570744 -0.01201517 108.60033035 -0.01862335 C112.26934133 -0.02439955 115.93821412 -0.02039497 119.60721016 -0.00883484 C121.59594152 -0.00492843 123.58468456 -0.01087094 125.57341003 -0.01708984 C126.75663345 -0.0114502 127.93985687 -0.00581055 129.15893555 0 C130.18723795 0.00075405 131.21554035 0.0015081 132.27500343 0.002285 C134.98859197 0.25736141 136.63507984 0.86156496 138.95248413 2.25396729 C138.95248413 2.91396729 138.95248413 3.57396729 138.95248413 4.25396729 C139.61248413 4.25396729 140.27248413 4.25396729 140.95248413 4.25396729 C143.25955889 11.29661656 143.25955889 11.29661656 141.88998413 15.56646729 C139.74718173 18.53874158 138.21262537 19.63754183 134.95248413 21.25396729 C132.23448658 21.63593483 132.23448658 21.63593483 129.23954773 21.64596558 C127.52970703 21.66260506 127.52970703 21.66260506 125.7853241 21.67958069 C124.54409286 21.67657455 123.30286163 21.67356842 122.02401733 21.67047119 C120.70976776 21.67905655 119.39551819 21.68764191 118.04144287 21.69648743 C114.44457642 21.71977807 110.84788263 21.7249579 107.2509501 21.72714663 C103.48686721 21.73281223 99.72289643 21.75608746 95.95887756 21.77774048 C88.83220763 21.81624441 81.70556983 21.84047657 74.57882231 21.85886514 C61.80473063 21.89229269 49.03073513 21.94994731 36.25675839 22.01285684 C31.77229621 22.03437529 27.28786745 22.04962937 22.80336535 22.05969644 C20.68870399 22.06501668 18.57406292 22.07248365 16.45941162 22.08085632 C13.87730595 22.0908785 11.29518269 22.09725322 8.71305847 22.09941101 C7.01590698 22.10759102 7.01590698 22.10759102 5.2844696 22.11593628 C4.29727086 22.11849237 3.31007212 22.12104847 2.29295826 22.12368202 C-0.07018036 22.09996206 -0.07018036 22.09996206 -2.04751587 23.25396729 C-2.05162476 24.32356689 -2.05573364 25.3931665 -2.05996704 26.49517822 C-2.08176225 30.46897369 -2.13605462 34.4417795 -2.20010376 38.4151001 C-2.22328062 40.13375351 -2.23767878 41.85254888 -2.24307251 43.5713501 C-2.25236499 46.04458037 -2.29335642 48.515579 -2.34048462 50.98834229 C-2.33458565 52.13855865 -2.33458565 52.13855865 -2.3285675 53.31201172 C-2.42961724 57.01818759 -2.74036153 58.89907526 -5.19644165 61.73687744 C-8.50995666 63.50003743 -10.63130201 63.76488756 -14.37173462 63.79302979 C-16.16127563 63.82783447 -16.16127563 63.82783447 -17.98696899 63.86334229 C-19.8422522 63.87107666 -19.8422522 63.87107666 -21.73501587 63.87896729 C-24.19735693 63.90439156 -26.65963261 63.93782666 -29.12173462 63.98052979 C-30.2105896 63.9864917 -31.29944458 63.99245361 -32.42129517 63.99859619 C-35.20574453 63.98862813 -35.20574453 63.98862813 -37.04751587 66.25396729 C-37.25369241 68.7902012 -37.33435567 71.21844946 -37.32839966 73.75662231 C-37.3343419 74.53955095 -37.34028415 75.32247959 -37.34640646 76.12913334 C-37.36382566 78.76697873 -37.36680065 81.40464307 -37.36978149 84.0425415 C-37.37903462 85.92795197 -37.3890835 87.81335868 -37.39987183 89.69876099 C-37.42615385 94.83097739 -37.43901611 99.96314143 -37.44789314 105.09541464 C-37.45374869 108.29925464 -37.46195712 111.50308023 -37.47090149 114.70691299 C-37.49825935 124.72355265 -37.51758918 134.74015948 -37.52530527 144.75683391 C-37.53427132 156.33366291 -37.56938559 167.91002015 -37.62730646 179.48670566 C-37.67048506 188.42602256 -37.69071083 197.36520647 -37.69338751 206.30462658 C-37.69548744 211.64812207 -37.70738268 216.99117436 -37.74302673 222.33456039 C-37.7758945 227.35962553 -37.78034619 232.38391211 -37.76274872 237.40904617 C-37.7612029 239.25537953 -37.76996043 241.10175393 -37.78966522 242.94798279 C-37.8149618 245.46537345 -37.80343854 247.97997654 -37.78250122 250.49734497 C-37.79861403 251.23139144 -37.81472684 251.96543791 -37.83132792 252.72172821 C-37.85103605 255.02892399 -37.85103605 255.02892399 -37.04751587 258.25396729 C-32.8298945 262.29966021 -28.85126243 262.83256448 -23.22915649 262.76190186 C-22.076255 262.7712618 -22.076255 262.7712618 -20.90006256 262.78081083 C-18.33431477 262.79671766 -15.76952007 262.78414613 -13.20376587 262.77154541 C-11.36041715 262.77696757 -9.51707276 262.78409076 -7.67373657 262.79278564 C-2.67374025 262.81101073 2.32592568 262.80395478 7.32592773 262.7912693 C12.5601795 262.78113746 17.79440312 262.7905355 23.02865601 262.79681396 C31.81842118 262.80408982 40.60805188 262.79450425 49.39779663 262.77545166 C59.55782599 262.75368308 69.71753427 262.76073449 79.87755585 262.78275728 C88.60299171 262.800913 97.32833095 262.80346875 106.0537796 262.79300261 C111.26412722 262.78676864 116.47432396 262.78592944 121.68466187 262.79914856 C126.58330302 262.81070889 131.48153046 262.80267787 136.38012695 262.77957153 C138.17721876 262.77428544 139.97434543 262.77579653 141.77142334 262.78462219 C144.22612609 262.79556546 146.67950612 262.78182992 149.13412476 262.76190186 C149.84405327 262.77082474 150.55398178 262.77974763 151.28542328 262.78894091 C156.25989149 262.71069221 159.15567061 261.4340237 162.95248413 258.25396729 C164.08988527 254.84176386 164.08293386 252.23101335 164.09051514 248.63157654 C164.09333642 247.95537697 164.0961577 247.2791774 164.09906447 246.58248693 C164.10741178 244.31175464 164.10874883 242.04107109 164.11019897 239.77032471 C164.1148671 238.14416873 164.12001067 236.51801405 164.12559509 234.89186096 C164.13687821 231.38712372 164.14531136 227.88239499 164.15171432 224.37764549 C164.16239061 218.83511051 164.18263447 213.29263665 164.20483398 207.75013733 C164.26677075 191.98834024 164.320773 176.22654665 164.35385132 160.46466064 C164.37219585 151.76170055 164.40112935 143.05884273 164.44185603 134.35595781 C164.46292816 129.7503375 164.4783836 125.14484609 164.4806633 120.53917503 C164.48281058 116.20612425 164.49868802 111.87334188 164.52505302 107.54037285 C164.53224434 105.95131154 164.53434779 104.36221771 164.53095055 102.77314377 C164.5270488 100.60088198 164.54153182 98.42947449 164.56048584 96.25730896 C164.56379599 95.04259509 164.56710613 93.82788122 164.57051659 92.57635784 C164.99972077 88.84309843 165.98964183 86.44364866 167.95248413 83.25396729 C171.16773698 81.03901532 173.10792694 80.25396729 177.01498413 80.25396729 C181.22608139 81.68753231 183.95946055 84.26792013 185.95248413 88.25396729 C186.0556605 90.48870205 186.09203656 92.72659702 186.09965515 94.96369934 C186.10333184 95.6614291 186.10700853 96.35915887 186.11079663 97.07803196 C186.12185365 99.42778142 186.12568077 101.77748669 186.12948608 104.1272583 C186.13574941 105.80751181 186.14239609 107.48776393 186.1493988 109.16801453 C186.16682515 113.74272983 186.17736586 118.31743467 186.18560433 122.89217496 C186.19075296 125.75097857 186.19682888 128.60977893 186.20311546 131.46858025 C186.22217548 140.41468653 186.23640267 149.36078454 186.24472743 158.30690724 C186.25449195 168.62991663 186.28078752 178.95271114 186.32122833 189.27564484 C186.35141485 197.25537946 186.36619887 205.23505261 186.36950845 213.21484321 C186.3718568 217.97993521 186.38078871 222.74479788 186.40596962 227.50982857 C186.42929856 231.9971761 186.43346424 236.48414412 186.42320824 240.97153664 C186.42271387 242.61419184 186.42900492 244.25686601 186.44276428 245.89946365 C186.54672077 259.05118062 184.58244776 267.30365789 175.31576538 277.08599854 C167.99459864 283.80211017 158.61607765 285.56689316 148.9138031 285.5146637 C148.14560995 285.51848924 147.3774168 285.52231479 146.58594507 285.52625626 C144.03365564 285.53650513 141.4815946 285.5326097 138.92929077 285.52862549 C137.09051812 285.53297643 135.25174729 285.53816085 133.41297913 285.54411316 C128.43364799 285.55747249 123.45439291 285.5580853 118.47504735 285.55554986 C114.31256326 285.55447818 110.15009443 285.5593685 105.98761362 285.56415528 C96.16542662 285.57523962 86.34327787 285.57569375 76.52108765 285.56964111 C66.39975818 285.56359992 56.27856767 285.57591852 46.15726191 285.59721118 C37.45553677 285.61484197 28.75385581 285.62082625 20.05211347 285.61757344 C14.8601592 285.61576298 9.66830409 285.6183732 4.47636604 285.63228798 C-0.40663662 285.64488592 -5.28942297 285.64290359 -10.17242241 285.62987709 C-11.96020074 285.62751614 -13.7479944 285.63022867 -15.53575516 285.63850021 C-28.96022792 285.69611408 -40.64133782 284.60832999 -50.73501587 274.87896729 C-57.95361581 267.2719225 -60.35652765 260.02966345 -60.31494141 249.7281189 C-60.32173808 248.47910555 -60.32173808 248.47910555 -60.32867205 247.20485961 C-60.34128273 244.42836564 -60.33969785 241.65206867 -60.33804321 238.87554932 C-60.34403048 236.87929025 -60.35083649 234.8830335 -60.35839844 232.88677979 C-60.37604396 227.47352709 -60.38075317 222.06033764 -60.38203001 216.64705896 C-60.38345282 213.2630806 -60.38772486 209.87911827 -60.39302444 206.49514389 C-60.41151893 194.68410981 -60.41969566 182.87312083 -60.41812134 171.06207275 C-60.41691964 160.0608468 -60.43802912 149.05981693 -60.46960866 138.0586406 C-60.49577579 128.60534911 -60.50648847 119.15212167 -60.50521052 109.69879425 C-60.50470108 104.05630906 -60.51037475 98.41399826 -60.53156662 92.77154922 C-60.55095658 87.4641824 -60.55106812 82.15715619 -60.53653336 76.84977722 C-60.53444522 74.90557736 -60.53914643 72.96135612 -60.55125427 71.01719284 C-60.65667642 52.91238238 -60.65667642 52.91238238 -56.04751587 45.25396729 C-55.38751587 45.25396729 -54.72751587 45.25396729 -54.04751587 45.25396729 C-54.04751587 44.59396729 -54.04751587 43.93396729 -54.04751587 43.25396729 C-53.38751587 43.25396729 -52.72751587 43.25396729 -52.04751587 43.25396729 C-52.04751587 42.59396729 -52.04751587 41.93396729 -52.04751587 41.25396729 C-51.38751587 41.25396729 -50.72751587 41.25396729 -50.04751587 41.25396729 C-50.04751587 40.59396729 -50.04751587 39.93396729 -50.04751587 39.25396729 C-49.38751587 39.25396729 -48.72751587 39.25396729 -48.04751587 39.25396729 C-48.04751587 38.59396729 -48.04751587 37.93396729 -48.04751587 37.25396729 C-47.38751587 37.25396729 -46.72751587 37.25396729 -46.04751587 37.25396729 C-45.84513306 36.72287354 -45.64275024 36.19177979 -45.43423462 35.64459229 C-43.44299159 32.21180149 -40.70286667 29.74497512 -37.86001587 27.00396729 C-33.58657791 22.81475805 -29.4831799 18.58427443 -25.59439087 14.03131104 C-18.38782971 5.75104505 -11.49849914 0.00842564 0 0 Z " fill="#1C3045" transform="translate(173.04751586914063,101.74603271484375)"/>
<path d="M0 0 C1.87295532 -0.36076355 1.87295532 -0.36076355 4.17431641 -0.34057617 C5.46542831 -0.34023628 5.46542831 -0.34023628 6.78262329 -0.33988953 C7.71287323 -0.32440567 8.64312317 -0.30892181 9.6015625 -0.29296875 C10.55316254 -0.28872391 11.50476257 -0.28447906 12.48519897 -0.28010559 C15.53208414 -0.26327896 18.57831391 -0.22561954 21.625 -0.1875 C23.68749046 -0.17245831 25.74999127 -0.15876901 27.8125 -0.14648438 C32.8752535 -0.11336239 37.93751554 -0.06155284 43 0 C45.31707852 4.1435527 45.30609633 7.90872206 45.30078125 12.5625 C45.30506638 13.39080322 45.3093515 14.21910645 45.31376648 15.07250977 C45.31950007 16.8207915 45.3200172 18.56909708 45.31567383 20.31738281 C45.31251106 22.99064792 45.33599391 25.66280892 45.36132812 28.3359375 C45.36360096 30.03645694 45.36430469 31.73697935 45.36328125 33.4375 C45.372491 34.23551025 45.38170074 35.03352051 45.39118958 35.85571289 C45.36396284 39.12344907 45.23978357 41.55413791 43.67651367 44.4609375 C42 46 42 46 38.8125 47.1875 C33.88210755 46.94502168 32.27980263 45.16077942 28.89453125 41.76171875 C26.46968843 39.50686491 24.36938018 38 21 38 C21 38.66 21 39.32 21 40 C20.34 40 19.68 40 19 40 C19 40.66 19 41.32 19 42 C18.34 42 17.68 42 17 42 C17 42.66 17 43.32 17 44 C16.34 44 15.68 44 15 44 C14.34 45.32 13.68 46.64 13 48 C12.34 48 11.68 48 11 48 C11 48.66 11 49.32 11 50 C9.47162731 51.39599396 7.87349901 52.71587649 6.25 54 C5.25355469 54.7940625 4.25710938 55.588125 3.23046875 56.40625 C2.43842041 57.03660156 2.43842041 57.03660156 1.63037109 57.6796875 C-0.02488677 59.02015389 -1.64628139 60.39312741 -3.26171875 61.78125 C-3.79249023 62.235 -4.32326172 62.68875 -4.87011719 63.15625 C-6.37311736 64.44480342 -7.872196 65.73792677 -9.37109375 67.03125 C-11.74273224 68.80733588 -13.11264555 69.61774977 -16 70 C-16 70.66 -16 71.32 -16 72 C-17.98 72.66 -19.96 73.32 -22 74 C-22 74.66 -22 75.32 -22 76 C-24.90677884 77.45338942 -27.81384269 78.90615324 -30.72265625 80.35546875 C-32.65362821 81.324407 -34.58020089 82.30235821 -36.49609375 83.30078125 C-53.69473736 92.20463216 -72.21682451 97.79991671 -91.3125 100.875 C-92.05790039 100.99512451 -92.80330078 101.11524902 -93.57128906 101.23901367 C-106.57792244 103.13373843 -106.57792244 103.13373843 -111.9375 100.625 C-115.89705882 97.50534759 -115.89705882 97.50534759 -116.6875 93.625 C-116.94831588 90.59953584 -117.00619639 88.79498999 -116 86 C-115.34 86 -114.68 86 -114 86 C-114 85.34 -114 84.68 -114 84 C-112.86046875 83.84144531 -111.7209375 83.68289063 -110.546875 83.51953125 C-75.86815822 78.4961 -37.43623608 66.12089016 -12.26171875 40.2109375 C-11 39 -11 39 -9 39 C-8.67 38.01 -8.34 37.02 -8 36 C-6.36328125 34.421875 -6.36328125 34.421875 -4.3125 32.75 C-1.54109204 30.3837979 1.09944688 28.0010439 3.5625 25.3125 C4.05878906 24.77238281 4.55507813 24.23226562 5.06640625 23.67578125 C6.18276398 22.02676569 6.18276398 22.02676569 5.875 19.99609375 C4.80097201 17.5459674 3.485521 16.45461546 1.4375 14.75 C-1.84206989 11.63172043 -1.84206989 11.63172043 -2.53125 8.875 C-2.58633781 5.12902907 -2.08879854 3.13319781 0 0 Z " fill="#192D43" transform="translate(272,227)"/>
<path d="M0 0 C3.80960282 3.21732292 7.38655296 6.87771721 8 12 C6.44712429 16.57689684 4.79372103 19.94054756 1 23 C0.34 23 -0.32 23 -1 23 C-1 23.66 -1 24.32 -1 25 C-1.66 25 -2.32 25 -3 25 C-3.268125 25.58265625 -3.53625 26.1653125 -3.8125 26.765625 C-5.01480991 29.02786601 -6.33825913 30.80576318 -8 32.75 C-8.515625 33.36359375 -9.03125 33.9771875 -9.5625 34.609375 C-11 36 -11 36 -13 36 C-13 36.66 -13 37.32 -13 38 C-13.66 38 -14.32 38 -15 38 C-15.33 39.32 -15.66 40.64 -16 42 C-16.66 42 -17.32 42 -18 42 C-18 42.66 -18 43.32 -18 44 C-18.66 44 -19.32 44 -20 44 C-20.2475 44.556875 -20.495 45.11375 -20.75 45.6875 C-22.22924818 48.42410913 -23.93467439 50.67650869 -26 53 C-26.66 53 -27.32 53 -28 53 C-28 53.66 -28 54.32 -28 55 C-28.66 55 -29.32 55 -30 55 C-30.32291016 55.81597656 -30.32291016 55.81597656 -30.65234375 56.6484375 C-32.46379641 59.80929113 -34.95496023 62.12763796 -37.5625 64.625 C-41.22714016 67.96402902 -41.22714016 67.96402902 -44 72 C-44.66 72 -45.32 72 -46 72 C-46 72.66 -46 73.32 -46 74 C-46.66 74 -47.32 74 -48 74 C-48 74.66 -48 75.32 -48 76 C-49.875 78.125 -49.875 78.125 -52 80 C-52.66 80 -53.32 80 -54 80 C-54.226875 80.556875 -54.45375 81.11375 -54.6875 81.6875 C-56.44510794 84.7842378 -58.21141668 86.76913334 -61 89 C-65.57088966 89.84646105 -68.18552355 89.17179613 -71.9375 86.625 C-73.71484375 85.2890625 -73.71484375 85.2890625 -75 84 C-75 83.34 -75 82.68 -75 82 C-75.66 82 -76.32 82 -77 82 C-77 81.34 -77 80.68 -77 80 C-77.66 80 -78.32 80 -79 80 C-79 79.34 -79 78.68 -79 78 C-79.66 78 -80.32 78 -81 78 C-81 77.34 -81 76.68 -81 76 C-81.66 76 -82.32 76 -83 76 C-84.17685928 74.87682955 -85.34522147 73.74349683 -86.47070312 72.56884766 C-88.17327927 70.82223937 -89.94585108 69.1701109 -91.734375 67.51171875 C-93.0732297 66.23730794 -94.41176527 64.9625618 -95.75 63.6875 C-96.43449219 63.06166016 -97.11898438 62.43582031 -97.82421875 61.79101562 C-101.10232119 58.62651079 -103.35533568 56.30554082 -104.01953125 51.69140625 C-103.99777588 47.57964143 -103.66146936 46.09073861 -101 43 C-97.66382486 40.12933767 -95.17439917 38.74527296 -90.8125 38.625 C-87 39 -87 39 -84 41 C-84 41.66 -84 42.32 -84 43 C-83.34 43 -82.68 43 -82 43 C-82 43.66 -82 44.32 -82 45 C-81.34 45 -80.68 45 -80 45 C-80 45.66 -80 46.32 -80 47 C-79.41734375 47.268125 -78.8346875 47.53625 -78.234375 47.8125 C-75.97213399 49.01480991 -74.19423682 50.33825913 -72.25 52 C-71.32960938 52.7734375 -71.32960938 52.7734375 -70.390625 53.5625 C-69 55 -69 55 -69 57 C-68.34 57 -67.68 57 -67 57 C-67 57.66 -67 58.32 -67 59 C-62.7538278 56.74708489 -59.93509664 54.01834967 -56.75 50.4375 C-55.44289063 48.98150391 -55.44289063 48.98150391 -54.109375 47.49609375 C-52.00303505 45.20251819 -52.00303505 45.20251819 -51 43 C-50.34 43 -49.68 43 -49 43 C-49 42.34 -49 41.68 -49 41 C-48.34 41 -47.68 41 -47 41 C-47 40.34 -47 39.68 -47 39 C-46.34 39 -45.68 39 -45 39 C-44.67128906 38.19369141 -44.67128906 38.19369141 -44.3359375 37.37109375 C-42.54031281 34.18412244 -40.12682052 31.69745509 -37.625 29.0625 C-36.54158321 27.90502603 -35.4582524 26.74747157 -34.375 25.58984375 C-33.818125 24.99800293 -33.26125 24.40616211 -32.6875 23.79638672 C-29.98514011 20.9196558 -27.3042068 18.02328006 -24.625 15.125 C-24.1204126 14.58125732 -23.6158252 14.03751465 -23.09594727 13.47729492 C-20.50204227 10.67187162 -17.98750488 7.82717986 -15.5625 4.875 C-11.03623885 -0.20324422 -6.76234001 -2.76118231 0 0 Z " fill="#192E43" transform="translate(362,117)"/>
<path d="M0 0 C0.91652344 0.00064453 1.83304687 0.00128906 2.77734375 0.00195312 C3.72738281 0.01806641 4.67742187 0.03417969 5.65625 0.05078125 C6.60628906 0.04755859 7.55632812 0.04433594 8.53515625 0.04101562 C16.24236241 0.10063536 16.24236241 0.10063536 20.15625 2.36328125 C20.83724829 16.747559 21.27532174 31.12343216 21.33349609 45.52349854 C21.34031746 47.03845115 21.35055674 48.55339233 21.36425781 50.06829834 C21.38213165 52.20710246 21.38641636 54.34550488 21.38671875 56.484375 C21.39082764 57.71599365 21.39493652 58.9476123 21.39916992 60.21655273 C21.16574444 63.24029249 20.97898628 64.95493557 19.15625 67.36328125 C16.38296552 68.47669981 13.68013428 68.49166936 10.71484375 68.49609375 C9.46864258 68.49802734 9.46864258 68.49802734 8.19726562 68.5 C7.33810547 68.49613281 6.47894531 68.49226563 5.59375 68.48828125 C4.73072266 68.49214844 3.86769531 68.49601562 2.97851562 68.5 C2.14900391 68.49871094 1.31949219 68.49742187 0.46484375 68.49609375 C-0.28998291 68.49496582 -1.04480957 68.49383789 -1.82250977 68.49267578 C-3.84375 68.36328125 -3.84375 68.36328125 -6.84375 67.36328125 C-6.84375 66.70328125 -6.84375 66.04328125 -6.84375 65.36328125 C-7.50375 65.36328125 -8.16375 65.36328125 -8.84375 65.36328125 C-8.93639393 57.33135697 -9.00748571 49.29965556 -9.05099869 41.26732922 C-9.07188192 37.53764677 -9.10021182 33.80832961 -9.14550781 30.07885742 C-9.18894111 26.48026753 -9.21288156 22.88202916 -9.22325897 19.2831974 C-9.23065503 17.90961484 -9.245098 16.53605171 -9.26667023 15.16261864 C-9.29566442 13.24035754 -9.29738355 11.31774337 -9.29785156 9.39526367 C-9.30673401 8.30050217 -9.31561646 7.20574066 -9.32476807 6.07780457 C-8.84375 3.36328125 -8.84375 3.36328125 -6.96026611 1.509552 C-4.45104001 0.1505959 -2.84346117 -0.01017093 0 0 Z " fill="#1D3246" transform="translate(295.84375,283.63671875)"/>
<path d="M0 0 C0.67690887 -0.00700928 1.35381775 -0.01401855 2.05123901 -0.02124023 C4.28327762 -0.03881012 6.51404281 -0.0272026 8.74609375 -0.01367188 C10.30021406 -0.01636712 11.85433272 -0.02024981 13.40844727 -0.02526855 C16.66341224 -0.03116218 19.91793773 -0.02260554 23.17285156 -0.00390625 C27.34282919 0.01888385 31.51177706 0.00575995 35.68171692 -0.01819611 C38.89025618 -0.03265812 42.09855174 -0.02804639 45.30709839 -0.01768494 C46.84447349 -0.01501873 48.3818708 -0.01828372 49.91921997 -0.02760315 C52.0691376 -0.03777617 54.2173935 -0.02226075 56.3671875 0 C57.58978271 0.00318237 58.81237793 0.00636475 60.07202148 0.00964355 C63.76078011 0.61179831 64.93783104 1.58944379 67.18359375 4.51757812 C68.11225884 8.26148779 67.68734028 11.58204886 65.87109375 14.95507812 C62.58259167 17.99998745 59.10837326 17.64876598 54.84790039 17.6628418 C53.53966812 17.66922165 52.23143585 17.6756015 50.88356018 17.68217468 C49.45362383 17.68370333 48.02368698 17.68481731 46.59375 17.68554688 C45.12788358 17.68876026 43.66201748 17.69212439 42.19615173 17.69563293 C39.12368018 17.70162049 36.05123674 17.7034732 32.97875977 17.70288086 C29.0433245 17.70277921 25.10806956 17.71643554 21.17267704 17.73365307 C18.14520948 17.74477531 15.1177855 17.74680001 12.09029961 17.74627113 C10.63944311 17.74745075 9.18858547 17.75187154 7.7377491 17.7596035 C5.70808361 17.7694081 3.67836523 17.76525987 1.64868164 17.76049805 C0.49412979 17.76192307 -0.66042206 17.76334808 -1.84996033 17.76481628 C-4.72845128 17.52490872 -6.3839985 17.01856797 -8.81640625 15.51757812 C-8.81640625 14.85757813 -8.81640625 14.19757813 -8.81640625 13.51757812 C-9.47640625 13.51757812 -10.13640625 13.51757812 -10.81640625 13.51757812 C-10.92524744 12.10264262 -11.00238242 10.68524869 -11.06640625 9.26757812 C-11.1128125 8.47867188 -11.15921875 7.68976563 -11.20703125 6.87695312 C-10.1763393 0.65157376 -5.50910917 0.01434002 0 0 Z " fill="#1C2F44" transform="translate(168.81640625,224.482421875)"/>
<path d="M0 0 C1.00998047 0.03544922 2.01996094 0.07089844 3.06054688 0.10742188 C4.02412109 0.15060547 4.98769531 0.19378906 5.98046875 0.23828125 C7.29954224 0.29495972 7.29954224 0.29495972 8.64526367 0.3527832 C10.8125 0.6875 10.8125 0.6875 12.8125 2.6875 C13.00003311 5.47260224 13.06811232 8.15649646 13.04296875 10.94140625 C13.04228142 12.16548439 13.04228142 12.16548439 13.0415802 13.41429138 C13.03855744 15.14005995 13.03067042 16.86582578 13.01831055 18.59155273 C13.00004978 21.24277333 12.99780086 23.89364496 12.99804688 26.54492188 C12.99313194 28.21875304 12.98730373 29.89258182 12.98046875 31.56640625 C12.97935593 32.36430069 12.9782431 33.16219513 12.97709656 33.98426819 C12.92854901 39.57145099 12.92854901 39.57145099 11.8125 40.6875 C-8.43948882 43.83004999 -8.43948882 43.83004999 -16.1875 40.6875 C-18.62519163 37.03096256 -18.47693265 34.28960148 -18.453125 30.0625 C-18.45503845 29.31919434 -18.4569519 28.57588867 -18.45892334 27.81005859 C-18.46028317 26.23990541 -18.45660079 24.6697409 -18.44824219 23.09960938 C-18.43753945 20.69635767 -18.4481439 18.29385346 -18.4609375 15.890625 C-18.45961587 14.36458168 -18.4570534 12.83853883 -18.453125 11.3125 C-18.45717346 10.59368652 -18.46122192 9.87487305 -18.46539307 9.13427734 C-18.43061682 5.43399566 -18.29572399 3.84983599 -16.1875 0.6875 C-10.89707544 -0.90249374 -5.44813996 -0.25675547 0 0 Z " fill="#152A3F" transform="translate(262.1875,310.3125)"/>
<path d="M0 0 C1.41671354 0.02164071 2.83345369 0.04159802 4.25021362 0.05995178 C7.2111545 0.10393077 10.17103027 0.16563035 13.13134766 0.24047852 C16.92194819 0.33525882 20.71183016 0.38968839 24.50334358 0.43141842 C27.42563067 0.46733666 30.34730445 0.52254092 33.26916122 0.58377266 C34.6668831 0.61113675 36.06472409 0.63299994 37.46261978 0.64921379 C39.41569818 0.67516611 41.36833834 0.72942202 43.32080078 0.78491211 C44.43077423 0.80887558 45.54074768 0.83283905 46.68435669 0.85752869 C50.1857912 1.53166326 51.40154538 2.61525969 53.5546875 5.41015625 C53.9453125 7.98828125 53.9453125 7.98828125 53.8046875 10.66015625 C53.76859375 11.5521875 53.7325 12.44421875 53.6953125 13.36328125 C53.64890625 14.03875 53.6025 14.71421875 53.5546875 15.41015625 C52.8946875 15.41015625 52.2346875 15.41015625 51.5546875 15.41015625 C51.5546875 16.07015625 51.5546875 16.73015625 51.5546875 17.41015625 C48.76355957 18.80572022 46.45519433 18.55284437 43.33251953 18.57128906 C42.02421173 18.58089661 40.71590393 18.59050415 39.36795044 18.60040283 C37.93280206 18.60525055 36.49765166 18.60952944 35.0625 18.61328125 C33.59520465 18.61903263 32.12790932 18.62479036 30.66061401 18.6305542 C27.5821701 18.64106486 24.50375231 18.64690706 21.42529297 18.65039062 C17.48190507 18.65587489 13.53886255 18.67990082 9.59558296 18.70836258 C6.56382237 18.72699286 3.53214488 18.73219476 0.50033188 18.7337265 C-0.95332858 18.73675281 -2.40698759 18.74478068 -3.86059189 18.75791168 C-5.89511023 18.77497799 -7.92977085 18.77124627 -9.96435547 18.76660156 C-11.70070755 18.77207001 -11.70070755 18.77207001 -13.47213745 18.77764893 C-16.74718414 18.37284408 -18.12339192 17.71675506 -20.4453125 15.41015625 C-21.046875 13.10546875 -21.046875 13.10546875 -21.0703125 10.53515625 C-21.10382813 9.69210938 -21.13734375 8.8490625 -21.171875 7.98046875 C-20.32484752 4.98399521 -19.08000227 3.3913372 -16.64590454 1.46166992 C-11.54989516 -0.9733673 -5.52620883 -0.1475649 0 0 Z " fill="#15293F" transform="translate(178.4453125,186.58984375)"/>
<path d="M0 0 C1.41705986 -0.02409439 1.41705986 -0.02409439 2.86274719 -0.04867554 C7.18518385 -0.09310153 11.5074666 -0.13418924 15.83007812 -0.15722656 C18.11045535 -0.17378987 20.39078058 -0.20108456 22.67089844 -0.23925781 C25.95689863 -0.29399672 29.24168158 -0.31589647 32.52807617 -0.33056641 C33.54593704 -0.35323578 34.56379791 -0.37590515 35.61250305 -0.39926147 C42.69880306 -0.37809506 42.69880306 -0.37809506 46.58911133 2.59448242 C49.45152332 6.59982699 49.13624632 8.36146128 48.44604492 13.19287109 C46.23863812 16.16145266 44.96007119 17.021529 41.44604492 18.19287109 C39.94843566 18.28913632 38.44697196 18.33097059 36.94628906 18.33813477 C36.03847183 18.34451462 35.1306546 18.35089447 34.19532776 18.35746765 C33.21716599 18.35858047 32.23900421 18.3596933 31.23120117 18.36083984 C30.22391464 18.36416824 29.21662811 18.36749664 28.17881775 18.3709259 C26.04792742 18.37598975 23.91702915 18.3783344 21.78613281 18.37817383 C18.524851 18.38036016 15.26390749 18.39852131 12.00268555 18.41748047 C9.93302525 18.42041451 7.86336334 18.42239923 5.79370117 18.42333984 C4.32949486 18.43411812 4.32949486 18.43411812 2.83570862 18.44511414 C1.92473923 18.44203751 1.01376984 18.43896088 0.07519531 18.43579102 C-1.12368568 18.43792854 -1.12368568 18.43792854 -2.3467865 18.44010925 C-4.79768402 18.16556956 -6.42970808 17.41577541 -8.55395508 16.19287109 C-8.55395508 15.53287109 -8.55395508 14.87287109 -8.55395508 14.19287109 C-9.21395508 14.19287109 -9.87395508 14.19287109 -10.55395508 14.19287109 C-11.18186205 6.0300804 -11.18186205 6.0300804 -8.67895508 2.69287109 C-5.54346582 0.47958456 -3.79452685 0.05856891 0 0 Z " fill="#16293E" transform="translate(168.553955078125,260.80712890625)"/>
<path d="M0 0 C2.43740186 3.65610278 2.32964831 5.64623816 2.375 10 C2.40335938 11.2375 2.43171875 12.475 2.4609375 13.75 C2 17 2 17 0.30566406 18.68261719 C-2.47091332 20.26906483 -4.16868051 20.36011376 -7.3515625 20.328125 C-8.87523437 20.32039063 -8.87523437 20.32039063 -10.4296875 20.3125 C-11.48414063 20.291875 -12.53859375 20.27125 -13.625 20.25 C-14.6871875 20.24484375 -15.749375 20.2396875 -16.84375 20.234375 C-24.69099026 20.15450487 -24.69099026 20.15450487 -27 19 C-27 18.34 -27 17.68 -27 17 C-27.66 17 -28.32 17 -29 17 C-29.05398987 14.72942623 -29.09278742 12.45848712 -29.125 10.1875 C-29.14820313 8.92292969 -29.17140625 7.65835937 -29.1953125 6.35546875 C-29 3 -29 3 -27 0 C-23.8046875 -0.73046875 -23.8046875 -0.73046875 -19.875 -1.1875 C-19.19719482 -1.26645508 -18.51938965 -1.34541016 -17.82104492 -1.42675781 C-4.04172774 -2.95357027 -4.04172774 -2.95357027 0 0 Z " fill="#1B2F42" transform="translate(232,332)"/>
<path d="M0 0 C94.05 0.495 94.05 0.495 190 1 C190 1.66 190 2.32 190 3 C127.96 3 65.92 3 2 3 C2 2.34 2 1.68 2 1 C1.34 0.67 0.68 0.34 0 0 Z " fill="#67808B" transform="translate(140,384)"/>
<path d="M0 0 C0.33 0 0.66 0 1 0 C1 53.46 1 106.92 1 162 C1.66 162.33 2.32 162.66 3 163 C2.505 163.99 2.505 163.99 2 165 C2.66 165.33 3.32 165.66 4 166 C3.67 166.99 3.34 167.98 3 169 C1.68 168.67 0.36 168.34 -1 168 C-0.67 112.56 -0.34 57.12 0 0 Z " fill="#132134" transform="translate(339,192)"/>
<path d="M0 0 C1.87295532 -0.36076355 1.87295532 -0.36076355 4.17431641 -0.34057617 C5.46542831 -0.34023628 5.46542831 -0.34023628 6.78262329 -0.33988953 C7.71287323 -0.32440567 8.64312317 -0.30892181 9.6015625 -0.29296875 C10.55316254 -0.28872391 11.50476257 -0.28447906 12.48519897 -0.28010559 C15.53208414 -0.26327896 18.57831391 -0.22561954 21.625 -0.1875 C23.68749046 -0.17245831 25.74999127 -0.15876901 27.8125 -0.14648438 C32.8752535 -0.11336239 37.93751554 -0.06155284 43 0 C43.495 0.99 43.495 0.99 44 2 C42.86739746 1.99214478 42.86739746 1.99214478 41.71191406 1.98413086 C38.22461816 1.96308775 34.73733569 1.9502541 31.25 1.9375 C30.06277344 1.92912109 28.87554687 1.92074219 27.65234375 1.91210938 C16.2765158 1.76084137 16.2765158 1.76084137 5 3 C4.67 3.66 4.34 4.32 4 5 C4.66 5.33 5.32 5.66 6 6 C5.38722388 8.96175123 4.74627478 10.38058783 3 13 C-0.875 12.125 -0.875 12.125 -2 11 C-2.36090226 3.54135338 -2.36090226 3.54135338 0 0 Z " fill="#324050" transform="translate(272,227)"/>
<path d="M0 0 C19.14 0 38.28 0 58 0 C57.67 0.99 57.34 1.98 57 3 C38.19 2.67 19.38 2.34 0 2 C0 1.34 0 0.68 0 0 Z " fill="#202A38" transform="translate(170,188)"/>
<path d="M0 0 C0.96084503 0.00007553 1.92169006 0.00015106 2.91165161 0.00022888 C3.95127045 0.00539017 4.99088928 0.01055145 6.06201172 0.01586914 C7.12459198 0.01728409 8.18717224 0.01869904 9.2819519 0.02015686 C12.68522931 0.02576705 16.0884416 0.0383213 19.49169922 0.05102539 C21.79508369 0.05603908 24.09846918 0.06060221 26.40185547 0.06469727 C32.05682571 0.0757398 37.71175781 0.09248788 43.36669922 0.11352539 C43.36669922 0.44352539 43.36669922 0.77352539 43.36669922 1.11352539 C42.04951904 1.12287109 40.73233887 1.1322168 39.37524414 1.1418457 C34.49403914 1.18168053 29.61346875 1.24742112 24.73266602 1.32104492 C22.6191421 1.34929234 20.50551179 1.37048803 18.3918457 1.38452148 C15.35556422 1.40589873 12.32056693 1.45252208 9.28466797 1.50415039 C7.86422432 1.50599335 7.86422432 1.50599335 6.41508484 1.50787354 C1.34255011 1.42686153 1.34255011 1.42686153 -2.62817383 4.15161133 C-2.95986572 4.79904297 -3.29155762 5.44647461 -3.63330078 6.11352539 C-4.29330078 6.11352539 -4.95330078 6.11352539 -5.63330078 6.11352539 C-5.30330078 7.43352539 -4.97330078 8.75352539 -4.63330078 10.11352539 C-5.25205078 10.21665039 -5.87080078 10.31977539 -6.50830078 10.42602539 C-8.99856562 10.98877912 -8.99856562 10.98877912 -10.63330078 14.11352539 C-11.26120776 5.95073469 -11.26120776 5.95073469 -8.75830078 2.61352539 C-5.57211377 0.36445221 -3.85767362 -0.01009862 0 0 Z " fill="#727B86" transform="translate(168.63330078125,260.886474609375)"/>
<path d="M0 0 C0.99 0 1.98 0 3 0 C3 1.98 3 3.96 3 6 C5.64 5.67 8.28 5.34 11 5 C10.67 5.99 10.34 6.98 10 8 C13.63 8.33 17.26 8.66 21 9 C21 9.66 21 10.32 21 11 C18.58325776 11.02705308 16.1668206 11.04686438 13.75 11.0625 C12.72712891 11.07506836 12.72712891 11.07506836 11.68359375 11.08789062 C4.69238844 11.12182851 4.69238844 11.12182851 2 10 C-0.4294516 6.3558226 -0.16179575 4.28758728 0 0 Z " fill="#2D3F4D" transform="translate(244,341)"/>
<path d="M0 0 C1.10844919 3.32534757 0.84454356 5.62182575 0 9 C-0.66 9 -1.32 9 -2 9 C-1.67 10.32 -1.34 11.64 -1 13 C-7.45 15.23269231 -7.45 15.23269231 -10.234375 14.0546875 C-10.81703125 13.70664063 -11.3996875 13.35859375 -12 13 C-11.21753906 12.22914063 -10.43507812 11.45828125 -9.62890625 10.6640625 C-8.60663943 9.65117427 -7.58451119 8.63814616 -6.5625 7.625 C-6.04623047 7.11710937 -5.52996094 6.60921875 -4.99804688 6.0859375 C-2.142867 3.31431064 -2.142867 3.31431064 0 0 Z " fill="#1E3044" transform="translate(143,120)"/>
<path d="M0 0 C0.66 1.32 1.32 2.64 2 4 C1.34 4.66 0.68 5.32 0 6 C-1.32 6 -2.64 6 -4 6 C-4.12375 6.78375 -4.2475 7.5675 -4.375 8.375 C-5.36307457 12.52491318 -9.02755567 15.02755567 -12 18 C-12.99 17.34 -13.98 16.68 -15 16 C-14.41992188 15.43152344 -13.83984375 14.86304688 -13.2421875 14.27734375 C-8.59383097 9.68268111 -4.17366549 5.029802 0 0 Z " fill="#434F5E" transform="translate(340,129)"/>
<path d="M0 0 C1.32 0 2.64 0 4 0 C4 0.66 4 1.32 4 2 C3.34 2 2.68 2 2 2 C2 2.66 2 3.32 2 4 C1.34 4 0.68 4 0 4 C-0.24492187 4.57234375 -0.48984375 5.1446875 -0.7421875 5.734375 C-2.21110099 8.38024402 -3.95348244 10.14853139 -6.125 12.25 C-6.84945313 12.95640625 -7.57390625 13.6628125 -8.3203125 14.390625 C-8.87460937 14.92171875 -9.42890625 15.4528125 -10 16 C-10.66 15.01 -11.32 14.02 -12 13 C-11.01 13 -10.02 13 -9 13 C-8.9175 12.4225 -8.835 11.845 -8.75 11.25 C-7.7973369 8.39201069 -6.13946926 7.07045412 -4 5 C-4 4.34 -4 3.68 -4 3 C-3.01 2.67 -2.02 2.34 -1 2 C-0.67 1.34 -0.34 0.68 0 0 Z " fill="#3B4854" transform="translate(332,168)"/>
<path d="M0 0 C1.23556641 0.01740234 1.23556641 0.01740234 2.49609375 0.03515625 C3.32238281 0.04417969 4.14867187 0.05320312 5 0.0625 C5.63808594 0.07410156 6.27617187 0.08570313 6.93359375 0.09765625 C5.56056417 3.45945548 4.31474166 4.81894435 1.05859375 6.41015625 C0.38054687 6.75691406 -0.2975 7.10367187 -0.99609375 7.4609375 C-3.42377871 8.20756514 -4.6990617 7.9203881 -7.06640625 7.09765625 C-4.06640625 5.09765625 -4.06640625 5.09765625 -2.06640625 5.09765625 C-2.34484375 4.13859375 -2.34484375 4.13859375 -2.62890625 3.16015625 C-2.77328125 2.47953125 -2.91765625 1.79890625 -3.06640625 1.09765625 C-2.06640625 0.09765625 -2.06640625 0.09765625 0 0 Z " fill="#2F3F51" transform="translate(341.06640625,376.90234375)"/>
<path d="M0 0 C0.66 0.33 1.32 0.66 2 1 C-0.31 3.97 -2.62 6.94 -5 10 C-5.66 9.34 -6.32 8.68 -7 8 C-7.33 8.99 -7.66 9.98 -8 11 C-10.97 10.505 -10.97 10.505 -14 10 C-11.46357916 7.21423609 -8.59630744 5.28576938 -5.4375 3.25 C-4.46683594 2.61578125 -3.49617187 1.9815625 -2.49609375 1.328125 C-1.67238281 0.88984375 -0.84867188 0.4515625 0 0 Z " fill="#3C4757" transform="translate(242,281)"/>
<path d="M0 0 C3.47339053 0.56508523 4.95006976 1.62643336 7.1875 4.3125 C7.95126953 5.20388672 7.95126953 5.20388672 8.73046875 6.11328125 C10.59779974 8.88842238 11.20203843 10.96094521 10.5625 14.25 C10.376875 14.8275 10.19125 15.405 10 16 C9.34 16 8.68 16 8 16 C8.061875 15.236875 8.12375 14.47375 8.1875 13.6875 C8.25086449 10.99898264 8.25086449 10.99898264 6.6875 9.3125 C5.17725852 8.13786774 3.5919343 7.06128953 2 6 C2 4.68 2 3.36 2 2 C1.34 2 0.68 2 0 2 C0 1.34 0 0.68 0 0 Z " fill="#374352" transform="translate(359,117)"/>
<path d="M0 0 C2 2 2 2 2 4 C-4.625 5.125 -4.625 5.125 -8 4 C-8 3.34 -8 2.68 -8 2 C-11.3 2 -14.6 2 -18 2 C-18 1.67 -18 1.34 -18 1 C-11.9844314 0.30968885 -6.05668244 -0.32446513 0 0 Z " fill="#454F5E" transform="translate(228,330)"/>
<path d="M0 0 C-0.99 0.66 -1.98 1.32 -3 2 C-3 2.66 -3 3.32 -3 4 C-6.50331713 7.40027839 -9.15833214 8.54961229 -14 9 C-10.40553365 3.00922276 -7.3346297 -0.62868255 0 0 Z " fill="#3A4654" transform="translate(359,116)"/>
<path d="M0 0 C1.9375 0.375 1.9375 0.375 4 1 C5.59387042 4.18774083 5.52663137 7.53927959 5 11 C3 13.5 3 13.5 1 15 C0.67 13.68 0.34 12.36 0 11 C0.66 10.67 1.32 10.34 2 10 C2.17942163 6.05272412 2.09350689 3.4019487 0 0 Z " fill="#4A545F" transform="translate(212,263)"/>
<path d="M0 0 C1.875 0.25 1.875 0.25 4 1 C5.25 3.0625 5.25 3.0625 6 5 C6.99 4.67 7.98 4.34 9 4 C11.1875 4.9375 11.1875 4.9375 13 6 C11.39884424 6.2493357 9.79379841 6.47378648 8.1875 6.6875 C7.29417969 6.81511719 6.40085938 6.94273437 5.48046875 7.07421875 C3 7 3 7 1.17578125 5.76953125 C0 4 0 4 0 0 Z " fill="#1F2E3D" transform="translate(159,271)"/>
<path d="M0 0 C0.95904856 3.83619425 0.91892116 5.32431536 0 9 C-0.99 9 -1.98 9 -3 9 C-3.33 9.66 -3.66 10.32 -4 11 C-5.32 10.67 -6.64 10.34 -8 10 C-5.36 6.7 -2.72 3.4 0 0 Z " fill="#3E4956" transform="translate(279,247)"/>
<path d="M0 0 C0.66 1.32 1.32 2.64 2 4 C1.01 4.78375 0.02 5.5675 -1 6.375 C-2.485 7.674375 -2.485 7.674375 -4 9 C-4 9.66 -4 10.32 -4 11 C-4.99 11.33 -5.98 11.66 -7 12 C-7.66 11.34 -8.32 10.68 -9 10 C-6.03 6.7 -3.06 3.4 0 0 Z " fill="#3F4C59" transform="translate(307,165)"/>
<path d="M0 0 C1.32 0 2.64 0 4 0 C4 1.32 4 2.64 4 4 C2.35 4.66 0.7 5.32 -1 6 C-1 9.63 -1 13.26 -1 17 C-1.33 17 -1.66 17 -2 17 C-2.05398987 14.72942623 -2.09278742 12.45848712 -2.125 10.1875 C-2.14820313 8.92292969 -2.17140625 7.65835937 -2.1953125 6.35546875 C-2 3 -2 3 0 0 Z " fill="#777F89" transform="translate(205,332)"/>
<path d="M0 0 C0.66 0 1.32 0 2 0 C2 7.92 2 15.84 2 24 C1.67 24 1.34 24 1 24 C0.90912109 22.35451172 0.90912109 22.35451172 0.81640625 20.67578125 C0.73195502 19.22134346 0.64730934 17.76691695 0.5625 16.3125 C0.52318359 15.59126953 0.48386719 14.87003906 0.44335938 14.12695312 C0.26140869 11.0617839 0.03771947 8.17873604 -0.59765625 5.16796875 C-1 3 -1 3 0 0 Z " fill="#5D6674" transform="translate(315,231)"/>
<path d="M0 0 C-0.61875 0.061875 -1.2375 0.12375 -1.875 0.1875 C-4.2590293 0.81552157 -4.2590293 0.81552157 -5.125 3.4375 C-5.41375 4.283125 -5.7025 5.12875 -6 6 C-6.66 6.66 -7.32 7.32 -8 8 C-8.64767793 10.57061311 -8.64767793 10.57061311 -9 13 C-9.33 13 -9.66 13 -10 13 C-10.61741425 4.97361478 -10.61741425 4.97361478 -8.375 1.4375 C-5.40106977 -0.3625104 -3.41756151 -0.31068741 0 0 Z " fill="#515B67" transform="translate(168,225)"/>
<path d="M0 0 C0.66 -0.33 1.32 -0.66 2 -1 C2 -0.34 2 0.32 2 1 C3.65 1 5.3 1 7 1 C7 1.33 7 1.66 7 2 C2.23692563 2.95261487 -2.1666528 3.08333357 -7 3 C-7.33 2.01 -7.66 1.02 -8 0 C-5.15247365 -1.42376318 -3.08125973 -0.51354329 0 0 Z " fill="#404E5E" transform="translate(179,325)"/>
<path d="M0 0 C0.99 0.33 1.98 0.66 3 1 C1.9375 3 1.9375 3 0 5 C-3.5625 5.375 -3.5625 5.375 -7 5 C-7.66 4.34 -8.32 3.68 -9 3 C-5.5647952 0.70986347 -4.014669 0.82157027 0 1 C0 0.67 0 0.34 0 0 Z " fill="#4C5765" transform="translate(301,201)"/>
<path d="M0 0 C0.33 0 0.66 0 1 0 C1.33 3.3 1.66 6.6 2 10 C3.32 9.67 4.64 9.34 6 9 C7.75 10.4375 7.75 10.4375 9 12 C6.75 12.6875 6.75 12.6875 4 13 C1.84375 11.84375 1.84375 11.84375 0 10 C-0.390625 7.51953125 -0.390625 7.51953125 -0.25 4.8125 C-0.21390625 3.91144531 -0.1778125 3.01039063 -0.140625 2.08203125 C-0.07101563 1.05142578 -0.07101563 1.05142578 0 0 Z " fill="#5F6974" transform="translate(158,192)"/>
<path d="M0 0 C2.95409701 1.37154504 5.44008376 2.98863724 8 5 C7.67 5.66 7.34 6.32 7 7 C4.69 6.34 2.38 5.68 0 5 C-0.5625 3.0625 -0.5625 3.0625 -1 1 C-0.67 0.67 -0.34 0.34 0 0 Z M-1 6 C-0.01 6.33 0.98 6.66 2 7 C1.01 7 0.02 7 -1 7 C-1 6.67 -1 6.34 -1 6 Z " fill="#3A4757" transform="translate(285,167)"/>
<path d="M0 0 C0.8971875 0.309375 0.8971875 0.309375 1.8125 0.625 C1.4825 1.285 1.1525 1.945 0.8125 2.625 C0.1525 2.625 -0.5075 2.625 -1.1875 2.625 C-1.1875 3.285 -1.1875 3.945 -1.1875 4.625 C-1.8475 4.625 -2.5075 4.625 -3.1875 4.625 C-3.47625 5.264375 -3.765 5.90375 -4.0625 6.5625 C-5.1875 8.625 -5.1875 8.625 -7.1875 9.625 C-7.1875 5.625 -7.1875 5.625 -5.1875 3.625 C-5.1875 2.965 -5.1875 2.305 -5.1875 1.625 C-2.1875 -0.375 -2.1875 -0.375 0 0 Z " fill="#3D4957" transform="translate(362.1875,137.375)"/>
<path d="M0 0 C2.375 -0.125 2.375 -0.125 5 0 C7.35953094 2.35953094 7.49141413 3.77895617 8 7 C4.66272214 5.82744291 2.22562513 4.81131596 0 2 C0 1.34 0 0.68 0 0 Z " fill="#414E5D" transform="translate(124,376)"/>
<path d="M0 0 C0.6875 1.75 0.6875 1.75 1 4 C-0.3125 6.25 -0.3125 6.25 -2 8 C-2.66 8 -3.32 8 -4 8 C-4.33 8.99 -4.66 9.98 -5 11 C-5.66 9.68 -6.32 8.36 -7 7 C-6.34 7 -5.68 7 -5 7 C-5 6.34 -5 5.68 -5 5 C-4.34 5 -3.68 5 -3 5 C-2.690625 4.360625 -2.38125 3.72125 -2.0625 3.0625 C-1 1 -1 1 0 0 Z " fill="#48525E" transform="translate(130,134)"/>
<path d="M0 0 C0.99 0.66 1.98 1.32 3 2 C-0.465 4.97 -0.465 4.97 -4 8 C-4.66 7.67 -5.32 7.34 -6 7 C-5.67 5.68 -5.34 4.36 -5 3 C-4.01 3 -3.02 3 -2 3 C-2 2.34 -2 1.68 -2 1 C-1.34 0.67 -0.68 0.34 0 0 Z " fill="#4B5666" transform="translate(273,281)"/>
<path d="M0 0 C2.97 0.33 5.94 0.66 9 1 C8.67 1.66 8.34 2.32 8 3 C5.93359375 3.4140625 5.93359375 3.4140625 3.4375 3.625 C2.61121094 3.69976562 1.78492188 3.77453125 0.93359375 3.8515625 C-0.02353516 3.92503906 -0.02353516 3.92503906 -1 4 C-0.67 2.68 -0.34 1.36 0 0 Z " fill="#2E3D4A" transform="translate(187,322)"/>
<path d="M0 0 C2.31 0.33 4.62 0.66 7 1 C6.67 1.66 6.34 2.32 6 3 C5.34 3 4.68 3 4 3 C4 3.66 4 4.32 4 5 C3.34 5 2.68 5 2 5 C2 5.66 2 6.32 2 7 C1.34 7 0.68 7 0 7 C0 4.69 0 2.38 0 0 Z " fill="#455564" transform="translate(289,262)"/>
<path d="M0 0 C0.33 0.99 0.66 1.98 1 3 C-0.6875 4.5625 -0.6875 4.5625 -3 6 C-5.75 5.6875 -5.75 5.6875 -8 5 C-5.47211993 2.20127563 -3.79588866 0.54226981 0 0 Z " fill="#384553" transform="translate(313,116)"/>
<path d="M0 0 C-2.00993705 2.00993705 -3.59211232 2.89940919 -6.125 4.125 C-6.84945312 4.47820312 -7.57390625 4.83140625 -8.3203125 5.1953125 C-8.87460938 5.46085937 -9.42890625 5.72640625 -10 6 C-10 5.34 -10 4.68 -10 4 C-10.66 3.67 -11.32 3.34 -12 3 C-7.77050005 0.58314288 -4.87664009 -0.34833144 0 0 Z " fill="#3E4856" transform="translate(246,304)"/>
<path d="M0 0 C0 0.66 0 1.32 0 2 C-0.66 2 -1.32 2 -2 2 C-2 2.66 -2 3.32 -2 4 C-2.66 4 -3.32 4 -4 4 C-4.66 5.32 -5.32 6.64 -6 8 C-6.66 6.68 -7.32 5.36 -8 4 C-4.5 0 -4.5 0 0 0 Z " fill="#535E69" transform="translate(336,168)"/>
<path d="M0 0 C0.33 1.32 0.66 2.64 1 4 C0.01 4.33 -0.98 4.66 -2 5 C-3.21869929 7.50447516 -3.21869929 7.50447516 -4 10 C-4.66 9.67 -5.32 9.34 -6 9 C-5.52797514 4.75177626 -3.03344482 2.80010291 0 0 Z " fill="#444F5D" transform="translate(156,107)"/>
<path d="M0 0 C0.66 0.66 1.32 1.32 2 2 C1.625 4.625 1.625 4.625 1 7 C-0.98 7 -2.96 7 -5 7 C-4.67 6.34 -4.34 5.68 -4 5 C-3.34 5 -2.68 5 -2 5 C-1.34 3.35 -0.68 1.7 0 0 Z " fill="#323E4B" transform="translate(273,344)"/>
<path d="M0 0 C0.66 1.32 1.32 2.64 2 4 C1.34 4.66 0.68 5.32 0 6 C-1.32 6 -2.64 6 -4 6 C-4.33 6.99 -4.66 7.98 -5 9 C-5.66 8.67 -6.32 8.34 -7 8 C-4.69 5.36 -2.38 2.72 0 0 Z " fill="#535D67" transform="translate(340,129)"/>
<path d="M0 0 C1 2 1 2 0.25 4.5 C-1 7 -1 7 -4 9 C-4.99 8.67 -5.98 8.34 -7 8 C-4.69 5.36 -2.38 2.72 0 0 Z " fill="#535E6A" transform="translate(324,146)"/>
<path d="M0 0 C-1.0975223 2.99324263 -1.67682892 3.84610901 -4.625 5.25 C-5.40875 5.4975 -6.1925 5.745 -7 6 C-6.6875 4.125 -6.6875 4.125 -6 2 C-3 0 -3 0 0 0 Z " fill="#505B65" transform="translate(348,377)"/>
<path d="M0 0 C0.99 0.33 1.98 0.66 3 1 C0.03 4.96 0.03 4.96 -3 9 C-3.66 8.67 -4.32 8.34 -5 8 C-5 7.34 -5 6.68 -5 6 C-3.68 5.67 -2.36 5.34 -1 5 C-1.33 4.01 -1.66 3.02 -2 2 C-1.34 2 -0.68 2 0 2 C0 1.34 0 0.68 0 0 Z " fill="#47505E" transform="translate(353,368)"/>
<path d="M0 0 C1.32 0 2.64 0 4 0 C3.34 1.32 2.68 2.64 2 4 C1.01 4 0.02 4 -1 4 C-1 6.31 -1 8.62 -1 11 C-1.33 11 -1.66 11 -2 11 C-2.25 3.375 -2.25 3.375 0 0 Z " fill="#6B747E" transform="translate(246,311)"/>
<path d="M0 0 C0.99 0 1.98 0 3 0 C3 0.66 3 1.32 3 2 C3.66 2 4.32 2 5 2 C5 2.99 5 3.98 5 5 C2.03 4.505 2.03 4.505 -1 4 C-0.67 2.68 -0.34 1.36 0 0 Z " fill="#3D4755" transform="translate(306,269)"/>
<path d="M0 0 C1.485 0.99 1.485 0.99 3 2 C3.66 2.33 4.32 2.66 5 3 C5 3.99 5 4.98 5 6 C3.35 6.33 1.7 6.66 0 7 C0 4.69 0 2.38 0 0 Z " fill="#132234" transform="translate(159,231)"/>
<path d="M0 0 C0.33 0 0.66 0 1 0 C1 3.3 1 6.6 1 10 C0.34 10 -0.32 10 -1 10 C-1 10.66 -1 11.32 -1 12 C-1.66 11.67 -2.32 11.34 -3 11 C-3 10.01 -3 9.02 -3 8 C-2.01 7.67 -1.02 7.34 0 7 C0 4.69 0 2.38 0 0 Z " fill="#54606A" transform="translate(231,192)"/>
<path d="M0 0 C0.66 0 1.32 0 2 0 C2 1.32 2 2.64 2 4 C2.99 4 3.98 4 5 4 C4.34 5.65 3.68 7.3 3 9 C2.34 8.67 1.68 8.34 1 8 C0.40644386 5.35139573 0.25790731 2.70802678 0 0 Z " fill="#444E5A" transform="translate(258,165)"/>
<path d="M0 0 C0.66 0.66 1.32 1.32 2 2 C1.625 4.125 1.625 4.125 1 6 C-0.32 6 -1.64 6 -3 6 C-2.42655063 3.13275314 -2.1385485 2.1385485 0 0 Z " fill="#273746" transform="translate(314,345)"/>
<path d="M0 0 C0.99 0 1.98 0 3 0 C3.33 3.3 3.66 6.6 4 10 C3.34 10 2.68 10 2 10 C-0.4294516 6.3558226 -0.16179575 4.28758728 0 0 Z " fill="#5F6E77" transform="translate(244,341)"/>
<path d="M0 0 C3.68754757 0.49831724 5.60490662 1.10067643 8 4 C5 4 2 4 -1 4 C-0.67 2.68 -0.34 1.36 0 0 Z " fill="#102338" transform="translate(178,322)"/>
<path d="M0 0 C-0.33 0.99 -0.66 1.98 -1 3 C-7.4 4.23076923 -7.4 4.23076923 -10.4375 3.0625 C-10.953125 2.711875 -11.46875 2.36125 -12 2 C-7.8803623 0.70756464 -4.33168317 -0.26252625 0 0 Z " fill="#13222F" transform="translate(193,306)"/>
<path d="M0 0 C0.66 0.33 1.32 0.66 2 1 C2 3.33333333 2 5.66666667 2 8 C1.01 8 0.02 8 -1 8 C-1.625 5.6875 -1.625 5.6875 -2 3 C-1.34 2.01 -0.68 1.02 0 0 Z " fill="#101E32" transform="translate(116,354)"/>
<path d="M0 0 C0.33 0.66 0.66 1.32 1 2 C1.66 2 2.32 2 3 2 C3 2.66 3 3.32 3 4 C0.36 4 -2.28 4 -5 4 C-5 3.34 -5 2.68 -5 2 C-3.35 1.34 -1.7 0.68 0 0 Z " fill="#122131" transform="translate(169,324)"/>
<path d="M0 0 C0.66 0.99 1.32 1.98 2 3 C0.35 3.33 -1.3 3.66 -3 4 C-3 3.01 -3 2.02 -3 1 C-3.99 0.67 -4.98 0.34 -6 0 C-2.25 -1.125 -2.25 -1.125 0 0 Z " fill="#344354" transform="translate(196,305)"/>
<path d="M0 0 C0.66 1.32 1.32 2.64 2 4 C1.01 5.485 1.01 5.485 0 7 C-1.32 5.35 -2.64 3.7 -4 2 C-2.68 1.34 -1.36 0.68 0 0 Z " fill="#404E5F" transform="translate(302,263)"/>
<path d="M0 0 C0.625 1.875 0.625 1.875 1 4 C0.34 4.66 -0.32 5.32 -1 6 C-1.99 6 -2.98 6 -4 6 C-3.6875 4.125 -3.6875 4.125 -3 2 C-2.01 1.34 -1.02 0.68 0 0 Z " fill="#132337" transform="translate(316,158)"/>
<path d="M0 0 C0.99 0.33 1.98 0.66 3 1 C2.34 1 1.68 1 1 1 C1.33 1.99 1.66 2.98 2 4 C1.01 4.33 0.02 4.66 -1 5 C-1 5.99 -1 6.98 -1 8 C-1.99 8 -2.98 8 -4 8 C-2.66666667 5.33333333 -1.33333333 2.66666667 0 0 Z " fill="#14273B" transform="translate(356,138)"/>
<path d="M0 0 C0.99 0.33 1.98 0.66 3 1 C2.67 2.32 2.34 3.64 2 5 C0.35 5 -1.3 5 -3 5 C-3 4.01 -3 3.02 -3 2 C-2.01 1.34 -1.02 0.68 0 0 Z " fill="#102135" transform="translate(212,314)"/>
<path d="M0 0 C-0.33 1.65 -0.66 3.3 -1 5 C-3.97 4.505 -3.97 4.505 -7 4 C-3.17391304 0 -3.17391304 0 0 0 Z " fill="#4A5666" transform="translate(235,287)"/>
<path d="M0 0 C0.66 0 1.32 0 2 0 C1.67 1.32 1.34 2.64 1 4 C-1.31 4.66 -3.62 5.32 -6 6 C-4 4 -2 2 0 0 Z " fill="#56616B" transform="translate(254,272)"/>
<path d="M0 0 C5.75 0.75 5.75 0.75 8 3 C4.71023192 4.09658936 3.28696233 3.79953138 0 3 C0 2.01 0 1.02 0 0 Z " fill="#5F6770" transform="translate(347,182)"/>
<path d="M0 0 C1.65 0.99 3.3 1.98 5 3 C4.67 4.32 4.34 5.64 4 7 C2 5.75 2 5.75 0 4 C0 2.68 0 1.36 0 0 Z " fill="#2E3C48" transform="translate(119,369)"/>
<path d="M0 0 C0.33 0 0.66 0 1 0 C1.1875 2.875 1.1875 2.875 1 6 C0.01 6.66 -0.98 7.32 -2 8 C-2.99 7.34 -3.98 6.68 -5 6 C-4.360625 5.566875 -3.72125 5.13375 -3.0625 4.6875 C-0.73253997 3.08760823 -0.73253997 3.08760823 0 0 Z " fill="#555E6D" transform="translate(337,357)"/>
<path d="M0 0 C-1.3125 2 -1.3125 2 -3 4 C-3.99 4 -4.98 4 -6 4 C-6 2.68 -6 1.36 -6 0 C-3.50907189 -1.24546405 -2.58919267 -0.7767578 0 0 Z " fill="#14212F" transform="translate(163,313)"/>
<path d="M0 0 C0.66 0.33 1.32 0.66 2 1 C1.42655063 3.86724686 1.1385485 4.8614515 -1 7 C-1.99 6.34 -2.98 5.68 -4 5 C-2.68 3.35 -1.36 1.7 0 0 Z " fill="#122438" transform="translate(244,281)"/>
<path d="M0 0 C0.66 0.33 1.32 0.66 2 1 C1.67 2.32 1.34 3.64 1 5 C-0.32 5.33 -1.64 5.66 -3 6 C-3.33 5.01 -3.66 4.02 -4 3 C-3.01 3 -2.02 3 -1 3 C-0.67 2.01 -0.34 1.02 0 0 Z " fill="#112133" transform="translate(265,264)"/>
<path d="M0 0 C2 1 2 1 4 3 C4.36933645 5.75372909 4.18336678 8.20365661 4 11 C3.67 11 3.34 11 3 11 C3 8.69 3 6.38 3 4 C1.68 3.67 0.36 3.34 -1 3 C-0.67 2.01 -0.34 1.02 0 0 Z " fill="#626A74" transform="translate(232,226)"/>
<path d="M0 0 C2.88575819 0.39803561 3.82189513 0.79009069 5.75 3.0625 C6.1625 3.701875 6.575 4.34125 7 5 C5.35 4.67 3.7 4.34 2 4 C2 3.34 2 2.68 2 2 C1.34 2 0.68 2 0 2 C0 1.34 0 0.68 0 0 Z " fill="#495663" transform="translate(359,117)"/>
<path d="M0 0 C1.40182371 2.61673759 2.60495559 5.0371669 3 8 C2.34 8.66 1.68 9.32 1 10 C-0.83691257 6.21812119 -1.15837626 4.05431692 0 0 Z " fill="#566069" transform="translate(313,106)"/>
<path d="M0 0 C0.33 0.99 0.66 1.98 1 3 C0.01 3.66 -0.98 4.32 -2 5 C-2.99 3.68 -3.98 2.36 -5 1 C-3 0 -3 0 0 0 Z " fill="#2D3747" transform="translate(167,261)"/>
<path d="M0 0 C1.485 0.99 1.485 0.99 3 2 C2.67 2.99 2.34 3.98 2 5 C1.01 4.67 0.02 4.34 -1 4 C-0.67 2.68 -0.34 1.36 0 0 Z M-3 6 C-2.34 6.66 -1.68 7.32 -1 8 C-1.66 8 -2.32 8 -3 8 C-3 7.34 -3 6.68 -3 6 Z " fill="#10273F" transform="translate(348,144)"/>
<path d="M0 0 C0.99 0.33 1.98 0.66 3 1 C1.515 3.475 1.515 3.475 0 6 C-1.32 5.34 -2.64 4.68 -4 4 C-2.68 2.68 -1.36 1.36 0 0 Z " fill="#414C5B" transform="translate(135,129)"/>
<path d="M0 0 C0.6875 1.8125 0.6875 1.8125 1 4 C-0.4375 5.75 -0.4375 5.75 -2 7 C-2.99 6.67 -3.98 6.34 -5 6 C-3.35 4.02 -1.7 2.04 0 0 Z " fill="#3B4653" transform="translate(143,120)"/>
</svg>
